<?xml version="1.0" encoding="UTF-8" standalone="no"?>
<!-- Created with Inkscape (http://www.inkscape.org/) -->

<svg
   width="1514.0513"
   height="489.70804"
   viewBox="0 0 400.59273 129.56858"
   version="1.1"
   id="svg1"
   inkscape:version="1.4.2 (f4327f4, 2025-05-13)"
   sodipodi:docname="title.svg"
   xmlns:inkscape="http://www.inkscape.org/namespaces/inkscape"
   xmlns:sodipodi="http://sodipodi.sourceforge.net/DTD/sodipodi-0.dtd"
   xmlns="http://www.w3.org/2000/svg"
   xmlns:svg="http://www.w3.org/2000/svg">
  <sodipodi:namedview
     id="namedview1"
     pagecolor="#505050"
     bordercolor="#eeeeee"
     borderopacity="1"
     inkscape:showpageshadow="0"
     inkscape:pageopacity="0"
     inkscape:pagecheckerboard="0"
     inkscape:deskcolor="#505050"
     inkscape:document-units="mm"
     inkscape:zoom="0.12173362"
     inkscape:cx="-755.7485"
     inkscape:cy="-308.04966"
     inkscape:window-width="1920"
     inkscape:window-height="991"
     inkscape:window-x="-9"
     inkscape:window-y="-9"
     inkscape:window-maximized="1"
     inkscape:current-layer="layer1" />
  <defs
     id="defs1" />
  <g
     inkscape:label="Capa 1"
     inkscape:groupmode="layer"
     id="layer1"
     transform="translate(-59.774567,-27.271941)">
    <path
       id="path19"
       style="fill:#000000;fill-opacity:1;stroke:#000000;stroke-width:1.5;stroke-linecap:round;stroke-linejoin:round;stroke-dasharray:none;stroke-opacity:1"
       d="m 238.26465,142.55113 a 7.4258734,17.970081 32.498028 0 0 0.76849,0.14735 20.35724,8.4252673 84.488389 0 0 1.0204,0.048 20.35724,8.4252673 84.488389 0 0 1.23489,-0.35201 7.4258734,17.970081 32.498028 0 0 10.99727,-9.66737 17.995828,7.4152496 73.438807 0 0 11.79865,13.3408 17.995828,7.4152496 73.438807 0 0 0.80124,-0.41112 8.4278537,20.350993 13.38088 0 0 11.15496,-17.80573 8.4278537,20.350993 13.38088 0 0 -3.47009,-21.77617 8.4278537,20.350993 13.38088 0 0 -10.82526,11.21373 17.995828,7.4152496 73.438807 0 0 -4.13113,-4.66758 7.4258734,17.970081 32.498028 0 0 -0.88213,-0.78372 7.4258734,17.970081 32.498028 0 0 -10.97225,4.97631 20.35724,8.4252673 84.488389 0 0 -9.62764,-14.59159 20.35724,8.4252673 84.488389 0 0 -6.42419,21.08555 20.35724,8.4252673 84.488389 0 0 7.1425,18.33538 7.4258734,17.970081 32.498028 0 0 0.73408,0.60614 7.4258734,17.970081 32.498028 0 0 0.68024,0.30195 z"
       inkscape:export-filename="title_part2.svg"
       inkscape:export-xdpi="96"
       inkscape:export-ydpi="96" />
    <path
       id="path20"
       style="fill:#000000;fill-opacity:1;stroke:#000000;stroke-width:1.5;stroke-linecap:round;stroke-linejoin:round;stroke-dasharray:none;stroke-opacity:1"
       d="m 213.41806,97.099756 c -2.33627,0.0374 -4.78445,0.33269 -7.20477,0.86892 -24.94755,5.524884 -28.96623,27.321614 3.57966,32.922904 -19.37768,-0.82846 -23.87176,6.14683 -22.99888,10.14294 1.09953,5.03335 9.29042,7.64575 19.47,5.39083 9.73718,-2.15667 20.90779,-5.57525 20.4588,-15.26404 0.60033,-5.38358 -3.75472,-16.82004 -24.2065,-17.45023 22.66354,1.06259 25.02983,-6.54201 24.11826,-10.71145 -0.80502,-3.685984 -6.02133,-6.014544 -13.21657,-5.899874 z"
       sodipodi:nodetypes="ccccccccc" />
    <path
       id="path21"
       style="fill:#000000;fill-opacity:1;stroke:#000000;stroke-width:1.5;stroke-linecap:round;stroke-linejoin:round;stroke-dasharray:none;stroke-opacity:1"
       d="m 304.07348,111.0878 a 13.512197,5.21001 10.211841 0 0 -3.40629,-0.80227 13.512197,5.21001 10.211841 0 0 -10.64051,-0.007 5.4148724,14.829066 15.924055 0 0 -1.13778,0.36481 13.512197,5.21001 10.211841 0 0 -2.50206,2.24556 5.4148724,14.829066 15.924055 0 0 -4.84876,10.24802 5.4148724,14.829066 15.924055 0 0 0.49424,15.40791 13.50118,5.4233258 15.671062 0 0 10.62713,5.91445 13.50118,5.4233258 15.671062 0 0 14.48278,-1.56094 13.50118,5.4233258 15.671062 0 0 -11.51204,-8.87128 13.50118,5.4233258 15.671062 0 0 -6.35071,-1.11056 5.4148724,14.829066 15.924055 0 0 1.34579,-2.93335 8.8082633,4.4053924 15.64453 0 0 1.91236,0.65922 8.8082633,4.4053924 15.64453 0 0 9.68534,-1.85181 8.8082633,4.4053924 15.64453 0 0 -7.27222,-6.6222 8.8082633,4.4053924 15.64453 0 0 -2.01052,-0.43932 5.4148724,14.829066 15.924055 0 0 0.33079,-2.67094 13.512197,5.21001 10.211841 0 0 5.38249,1.45298 13.512197,5.21001 10.211841 0 0 14.29885,-2.68495 13.512197,5.21001 10.211841 0 0 -8.87897,-6.73791 z" />
    <path
       id="path22"
       style="fill:#000000;fill-opacity:1;stroke:#000000;stroke-width:1.5;stroke-linecap:round;stroke-linejoin:round;stroke-dasharray:none;stroke-opacity:1"
       d="m 334.05253,105.37432 a 5.7532881,14.441166 82.643299 0 0 -3.73024,0.27441 5.7532881,14.441166 82.643299 0 0 -10.8373,3.49012 16.371361,5.7885682 88.171533 0 0 -1.03956,0.75841 5.7532881,14.441166 82.643299 0 0 -1.81527,3.18868 16.371361,5.7885682 88.171533 0 0 -1.5944,12.39241 16.371361,5.7885682 88.171533 0 0 5.52939,16.07303 5.9873982,14.432885 88.356397 0 0 12.75058,2.73867 5.9873982,14.432885 88.356397 0 0 14.23817,-6.40571 5.9873982,14.432885 88.356397 0 0 -14.61618,-5.56342 5.9873982,14.432885 88.356397 0 0 -6.82901,0.91749 16.371361,5.7885682 88.171533 0 0 0.41351,-3.53331 4.8635936,9.4161102 88.377747 0 0 2.16234,0.0659 4.8635936,9.4161102 88.377747 0 0 9.25821,-5.13513 4.8635936,9.4161102 88.377747 0 0 -9.56526,-4.58731 4.8635936,9.4161102 88.377747 0 0 -2.19057,0.19788 16.371361,5.7885682 88.171533 0 0 -0.53434,-2.92317 5.7532881,14.441166 82.643299 0 0 5.9548,-0.23854 5.7532881,14.441166 82.643299 0 0 13.68422,-7.52965 5.7532881,14.441166 82.643299 0 0 -11.23909,-4.18102 z" />
    <path
       id="path23"
       style="fill:#000000;fill-opacity:1;stroke:#000000;stroke-width:1.5;stroke-linecap:round;stroke-linejoin:round;stroke-dasharray:none;stroke-opacity:1"
       d="m 364.21415,102.37415 c -15.08834,2.69138 -15.1549,14.54227 -13.48169,26.59248 1.6081,10.87737 5.99775,19.23303 9.80504,18.66374 3.24489,-0.4874 5.09434,-7.37476 4.44125,-16.53938 1.14994,0.0366 2.30641,-0.0311 3.45071,-0.2033 9.09639,-1.36314 15.52697,-8.85135 14.36303,-16.7253 -1.16416,-7.87393 -9.482,-13.15168 -18.57834,-11.78812 z m 1.38144,9.46925 a 5.0039964,5.3927002 80.766602 0 1 6.06495,4.15156 5.0039964,5.3927002 80.766602 0 1 -4.6011,5.75014 5.0039964,5.3927002 80.766602 0 1 -6.06495,-4.15154 5.0039964,5.3927002 80.766602 0 1 4.6011,-5.75016 z" />
    <path
       id="path24"
       style="fill:#000000;fill-opacity:1;stroke:#000000;stroke-width:1.5;stroke-linecap:round;stroke-linejoin:round;stroke-dasharray:none;stroke-opacity:1"
       d="m 413.16645,109.46548 a 14.449512,5.7499662 18.559039 0 0 -3.47974,-1.38066 14.449512,5.7499662 18.559039 0 0 -11.26884,-1.58423 5.7949708,16.353273 23.653705 0 0 -1.26327,0.22987 14.449512,5.7499662 18.559039 0 0 -3.00853,2.0814 5.7949708,16.353273 23.653705 0 0 -6.77129,10.4721 5.7949708,16.353273 23.653705 0 0 -1.93582,16.89792 14.449402,5.9805541 24.264495 0 0 10.31188,8.03253 14.449402,5.9805541 24.264495 0 0 15.58862,0.4409 14.449402,5.9805541 24.264495 0 0 -10.77711,-11.39232 14.449402,5.9805541 24.264495 0 0 -6.54914,-2.15341 5.7949708,16.353273 23.653705 0 0 1.89361,-3.00372 9.4269267,4.8580122 24.334552 0 0 1.92025,1.00309 9.4269267,4.8580122 24.334552 0 0 10.55386,-0.58737 9.4269267,4.8580122 24.334552 0 0 -6.64546,-8.30839 9.4269267,4.8580122 24.334552 0 0 -2.05933,-0.77756 5.7949708,16.353273 23.653705 0 0 0.77677,-2.86752 14.449512,5.7499662 18.559039 0 0 5.469,2.38394 14.449512,5.7499662 18.559039 0 0 15.57331,-0.81372 14.449512,5.7499662 18.559039 0 0 -8.3288,-8.67276 z" />
    <path
       id="path25"
       style="fill:#000000;fill-opacity:1;stroke:#000000;stroke-width:1.5;stroke-linecap:round;stroke-linejoin:round;stroke-dasharray:none;stroke-opacity:1"
       d="m 442.77914,102.51406 c -15.31068,0.62491 -16.95711,12.35948 -16.9078,24.52679 0.14093,10.99631 3.37603,19.86965 7.22474,19.82079 2.54127,-0.0336 4.76543,-3.98651 5.90665,-10.02905 a 12.406233,7.3929476 43.581744 0 0 3.06937,4.62023 12.406233,7.3929476 43.581744 0 0 14.4675,4.96158 12.406233,7.3929476 43.581744 0 0 -2.04319,-13.37876 12.406233,7.3929476 43.581744 0 0 -3.85437,-3.34057 c 5.39221,-2.44697 9.0464,-7.36524 8.9742,-12.98628 -0.10236,-7.96003 -7.64127,-14.31482 -16.8371,-14.19473 z m 0.10521,9.57085 a 5.0048008,5.3918332 89.189739 0 1 5.45702,4.9342 5.0048008,5.3918332 89.189739 0 1 -5.32833,5.07477 5.0048008,5.3918332 89.189739 0 1 -5.45528,-4.9342 5.0048008,5.3918332 89.189739 0 1 5.32659,-5.07477 z" />
    <g
       id="g30"
       transform="matrix(3.3661521,-0.99539783,0.98859235,3.3893249,13.718222,54.813646)"
       style="fill:#000000;fill-opacity:1;stroke:#000000;stroke-width:0.426091;stroke-dasharray:none;stroke-opacity:1">
      <rect
         style="fill:#000000;fill-opacity:1;stroke:#000000;stroke-width:0.426091;stroke-linecap:round;stroke-linejoin:round;stroke-dasharray:none;stroke-opacity:1"
         id="rect25"
         width="1.4263341"
         height="13.244532"
         x="-37.343502"
         y="24.723124"
         rx="0.029361548"
         ry="0.25409824"
         transform="scale(-1,1)" />
      <path
         sodipodi:type="star"
         style="fill:#000000;fill-opacity:1;stroke:#000000;stroke-width:0.380513;stroke-linecap:round;stroke-linejoin:round;stroke-dasharray:none;stroke-opacity:1"
         id="path29"
         inkscape:flatsided="false"
         sodipodi:sides="3"
         sodipodi:cx="24.723124"
         sodipodi:cy="28.458761"
         sodipodi:r1="4.9744649"
         sodipodi:r2="2.4872322"
         sodipodi:arg1="2.6179939"
         sodipodi:arg2="3.6651914"
         inkscape:rounded="0"
         inkscape:randomized="0"
         d="m 20.415111,30.945994 2.154006,-3.730849 2.154007,-3.730849 2.154006,3.730849 2.154006,3.730849 -4.308012,-10e-7 z"
         transform="matrix(-1.0344672,-0.52486914,-0.5972499,0.90910002,76.926205,14.354196)"
         inkscape:transform-center-x="-1.4855008" />
      <ellipse
         style="fill:#000000;fill-opacity:1;stroke:#000000;stroke-width:0.426091;stroke-linecap:round;stroke-linejoin:round;stroke-dasharray:none;stroke-opacity:1"
         id="ellipse30"
         cx="-36.630337"
         cy="38.544979"
         rx="2.0619226"
         ry="2.0036595"
         transform="scale(-1,1)" />
    </g>
    <path
       id="path2"
       style="fill:#000000;fill-opacity:1;stroke:#000000;stroke-width:1.5;stroke-linecap:round;stroke-linejoin:round;stroke-dasharray:none;stroke-opacity:1"
       d="m 163.51453,44.205835 a 6.1504865,17.133894 5.8002059 0 0 -7.26822,12.400315 19.342054,6.5318944 58.72397 0 0 -15.15283,-11.522274 19.342054,6.5318944 58.72397 0 0 -0.82671,1.434812 6.1500513,17.135104 0 0 0 -3.3395,15.242538 6.1500513,17.135104 0 0 0 6.1496,17.135546 6.1500513,17.135104 0 0 0 5.60028,-10.049131 19.342054,6.5318944 58.72397 0 0 10.67842,9.266005 6.1504865,17.133894 5.8002059 0 0 0.68893,0.184314 6.1504865,17.133894 5.8002059 0 0 7.8538,-16.414478 6.1504865,17.133894 5.8002059 0 0 -4.38377,-17.677702 z"
       inkscape:export-filename="title_part1.svg"
       inkscape:export-xdpi="96"
       inkscape:export-ydpi="96" />
    <path
       id="path7"
       style="fill:#000000;fill-opacity:1;stroke:#000000;stroke-width:1.5;stroke-linecap:round;stroke-linejoin:round;stroke-dasharray:none;stroke-opacity:1"
       d="m 92.224775,34.83213 a 7.4125779,18.002313 9.8352987 0 0 -0.765075,0.164292 20.327234,8.4377039 61.846271 0 0 -0.959062,0.354137 20.327234,8.4377039 61.846271 0 0 -1.002576,0.80685 7.4125779,18.002313 9.8352987 0 0 -6.412484,13.205335 17.956256,7.431591 50.738023 0 0 -16.013996,-7.688811 17.956256,7.431591 50.738023 0 0 -0.580152,0.691845 20.354916,8.4262288 80.774212 0 0 -3.422894,20.768195 20.354916,8.4262288 80.774212 0 0 11.586714,18.716381 20.354916,8.4262288 80.774212 0 0 5.658289,-14.563476 17.956256,7.431591 50.738023 0 0 5.605706,2.688897 7.4125779,18.002313 9.8352987 0 0 1.114993,0.377868 7.4125779,18.002313 9.8352987 0 0 8.19644,-8.871709 20.327234,8.4377039 61.846271 0 0 14.494732,9.689509 20.327234,8.4377039 61.846271 0 0 -2.20094,-21.943784 20.327234,8.4377039 61.846271 0 0 -13.646262,-14.110758 7.4125779,18.002313 9.8352987 0 0 -0.910109,-0.271983 7.4125779,18.002313 9.8352987 0 0 -0.743324,-0.01276 z" />
    <g
       id="g7"
       transform="matrix(3.508318,0,0,3.5324691,48.972892,28.338876)"
       style="fill:#000000;fill-opacity:1;stroke:#000000;stroke-width:0.426091;stroke-dasharray:none;stroke-opacity:1">
      <ellipse
         style="fill:#000000;fill-opacity:1;stroke:#000000;stroke-width:0.426091;stroke-linecap:round;stroke-linejoin:round;stroke-dasharray:none;stroke-opacity:1"
         id="ellipse7"
         cx="21.300049"
         cy="9.7495146"
         rx="2.1372087"
         ry="4.7546892" />
      <circle
         style="fill:#000000;fill-opacity:1;stroke:#000000;stroke-width:0.426091;stroke-linecap:round;stroke-linejoin:round;stroke-dasharray:none;stroke-opacity:1"
         id="circle7"
         cx="21.516169"
         cy="2.4493854"
         r="1.7770051" />
    </g>
    <path
       id="path9"
       style="fill:#000000;fill-opacity:1;stroke:#000000;stroke-width:1.5;stroke-linecap:round;stroke-linejoin:round;stroke-dasharray:none;stroke-opacity:1"
       d="m 194.88316,40.06186 a 6.3474204,15.768756 84.204391 0 0 -4.07919,0.182532 6.3474204,15.768756 84.204391 0 0 -11.94387,3.501228 6.3185464,18.068205 0 0 0 -1.1603,0.803203 6.3474204,15.768756 84.204391 0 0 -2.09037,3.459236 6.3185464,18.068205 0 0 0 -2.1665,13.619715 6.3185464,18.068205 0 0 0 5.47881,17.909532 15.754243,6.6079992 0 0 0 13.81668,3.431854 15.754243,6.6079992 0 0 0 15.75474,-6.608144 15.754243,6.6079992 0 0 0 -15.75474,-6.608149 15.754243,6.6079992 0 0 0 -7.48215,0.79225 6.3185464,18.068205 0 0 0 0.57289,-3.884568 10.278169,5.3677132 0 0 0 2.35687,0.142395 10.278169,5.3677132 0 0 0 10.27775,-5.366831 10.278169,5.3677132 0 0 0 -10.27775,-5.368668 10.278169,5.3677132 0 0 0 -2.39675,0.147881 6.3185464,18.068205 0 0 0 -0.48225,-3.242006 6.3474204,15.768756 84.204391 0 0 6.50495,-0.07108 6.3474204,15.768756 84.204391 0 0 15.18909,-7.865878 6.3474204,15.768756 84.204391 0 0 -12.11791,-4.974381 z" />
    <path
       id="path5"
       style="fill:#00caea;fill-opacity:1;stroke:#000000;stroke-width:1.5;stroke-linecap:round;stroke-linejoin:round;stroke-dasharray:none;stroke-opacity:1"
       d="m 161.59344,41.516314 a 6.1504865,17.133894 5.8002059 0 0 -7.26822,12.400315 19.342054,6.5318944 58.72397 0 0 -15.15283,-11.522274 19.342054,6.5318944 58.72397 0 0 -0.82671,1.434812 6.1500513,17.135104 0 0 0 -3.3395,15.242538 6.1500513,17.135104 0 0 0 6.1496,17.135546 6.1500513,17.135104 0 0 0 5.60028,-10.049131 19.342054,6.5318944 58.72397 0 0 10.67842,9.266005 6.1504865,17.133894 5.8002059 0 0 0.68893,0.184314 6.1504865,17.133894 5.8002059 0 0 7.8538,-16.414478 6.1504865,17.133894 5.8002059 0 0 -4.38377,-17.677702 z"
       inkscape:export-filename="title_part1.svg"
       inkscape:export-xdpi="96"
       inkscape:export-ydpi="96" />
    <path
       id="path1"
       style="fill:#00caea;fill-opacity:1;stroke:#000000;stroke-width:1.5;stroke-linecap:round;stroke-linejoin:round;stroke-dasharray:none;stroke-opacity:1"
       d="m 90.303688,32.142609 a 7.4125779,18.002313 9.8352987 0 0 -0.765075,0.164292 20.327234,8.4377039 61.846271 0 0 -0.959062,0.354137 20.327234,8.4377039 61.846271 0 0 -1.002576,0.80685 7.4125779,18.002313 9.8352987 0 0 -6.412484,13.205335 17.956256,7.431591 50.738023 0 0 -16.013996,-7.688811 17.956256,7.431591 50.738023 0 0 -0.580152,0.691845 20.354916,8.4262288 80.774212 0 0 -3.422894,20.768195 20.354916,8.4262288 80.774212 0 0 11.586714,18.716381 20.354916,8.4262288 80.774212 0 0 5.658289,-14.563476 17.956256,7.431591 50.738023 0 0 5.605706,2.688897 7.4125779,18.002313 9.8352987 0 0 1.114993,0.377868 7.4125779,18.002313 9.8352987 0 0 8.196444,-8.871709 20.327234,8.4377039 61.846271 0 0 14.494725,9.689509 20.327234,8.4377039 61.846271 0 0 -2.20094,-21.943784 20.327234,8.4377039 61.846271 0 0 -13.646256,-14.110758 7.4125779,18.002313 9.8352987 0 0 -0.910112,-0.271983 7.4125779,18.002313 9.8352987 0 0 -0.743324,-0.01276 z" />
    <path
       id="path1-8"
       style="fill:#008080;fill-opacity:1;stroke:#000000;stroke-width:1.5;stroke-linecap:round;stroke-linejoin:round;stroke-dasharray:none;stroke-opacity:1"
       d="m 235.54782,139.8343 a 7.4258734,17.970081 32.498028 0 0 0.76849,0.14735 20.35724,8.4252673 84.488389 0 0 1.0204,0.048 20.35724,8.4252673 84.488389 0 0 1.23489,-0.35201 7.4258734,17.970081 32.498028 0 0 10.99727,-9.66737 17.995828,7.4152496 73.438807 0 0 11.79865,13.3408 17.995828,7.4152496 73.438807 0 0 0.80124,-0.41112 8.4278537,20.350993 13.38088 0 0 11.15496,-17.80573 8.4278537,20.350993 13.38088 0 0 -3.47009,-21.77617 8.4278537,20.350993 13.38088 0 0 -10.82526,11.21373 17.995828,7.4152496 73.438807 0 0 -4.13113,-4.66758 7.4258734,17.970081 32.498028 0 0 -0.88213,-0.78372 7.4258734,17.970081 32.498028 0 0 -10.97225,4.97631 20.35724,8.4252673 84.488389 0 0 -9.62764,-14.591594 20.35724,8.4252673 84.488389 0 0 -6.42419,21.085554 20.35724,8.4252673 84.488389 0 0 7.1425,18.33538 7.4258734,17.970081 32.498028 0 0 0.73408,0.60614 7.4258734,17.970081 32.498028 0 0 0.68024,0.30195 z"
       inkscape:export-filename="title_part2.svg"
       inkscape:export-xdpi="96"
       inkscape:export-ydpi="96" />
    <g
       id="g4"
       transform="matrix(3.508318,0,0,3.5324691,47.051805,25.649355)"
       style="stroke:#000000;stroke-width:0.426091;stroke-dasharray:none;stroke-opacity:1">
      <ellipse
         style="fill:#00caea;fill-opacity:1;stroke:#000000;stroke-width:0.426091;stroke-linecap:round;stroke-linejoin:round;stroke-dasharray:none;stroke-opacity:1"
         id="path3"
         cx="21.300049"
         cy="9.7495146"
         rx="2.1372087"
         ry="4.7546892" />
      <circle
         style="fill:#00caea;fill-opacity:1;stroke:#000000;stroke-width:0.426091;stroke-linecap:round;stroke-linejoin:round;stroke-dasharray:none;stroke-opacity:1"
         id="path4"
         cx="21.516169"
         cy="2.4493854"
         r="1.7770051" />
    </g>
    <path
       id="path6"
       style="fill:#00caea;fill-opacity:1;stroke:#000000;stroke-width:1.5;stroke-linecap:round;stroke-linejoin:round;stroke-dasharray:none;stroke-opacity:1"
       d="m 192.96207,37.372339 a 6.3474204,15.768756 84.204391 0 0 -4.07919,0.182532 6.3474204,15.768756 84.204391 0 0 -11.94387,3.501228 6.3185464,18.068205 0 0 0 -1.1603,0.803203 6.3474204,15.768756 84.204391 0 0 -2.09037,3.459236 6.3185464,18.068205 0 0 0 -2.1665,13.619715 6.3185464,18.068205 0 0 0 5.47881,17.909532 15.754243,6.6079992 0 0 0 13.81668,3.431854 15.754243,6.6079992 0 0 0 15.75474,-6.608144 15.754243,6.6079992 0 0 0 -15.75474,-6.608149 15.754243,6.6079992 0 0 0 -7.48215,0.79225 6.3185464,18.068205 0 0 0 0.57289,-3.884568 10.278169,5.3677132 0 0 0 2.35687,0.142395 10.278169,5.3677132 0 0 0 10.27775,-5.366831 10.278169,5.3677132 0 0 0 -10.27775,-5.368668 10.278169,5.3677132 0 0 0 -2.39675,0.147881 6.3185464,18.068205 0 0 0 -0.48225,-3.242006 6.3474204,15.768756 84.204391 0 0 6.50495,-0.07108 6.3474204,15.768756 84.204391 0 0 15.18909,-7.865878 6.3474204,15.768756 84.204391 0 0 -12.11791,-4.974381 z" />
    <path
       id="path8"
       style="fill:#008080;fill-opacity:1;stroke:#000000;stroke-width:1.5;stroke-linecap:round;stroke-linejoin:round;stroke-dasharray:none;stroke-opacity:1"
       d="m 210.70123,94.382926 c -2.33627,0.0374 -4.78445,0.33269 -7.20477,0.86892 -24.94755,5.524884 -28.96623,27.321614 3.57966,32.922904 -19.37768,-0.82846 -23.87176,6.14683 -22.99888,10.14294 1.09953,5.03335 9.29042,7.64575 19.47,5.39083 9.73718,-2.15667 20.90779,-5.57525 20.4588,-15.26404 0.60033,-5.38358 -3.75472,-16.82004 -24.2065,-17.45023 22.66354,1.06259 25.02983,-6.54201 24.11826,-10.71145 -0.80502,-3.685984 -6.02133,-6.014544 -13.21657,-5.899874 z"
       sodipodi:nodetypes="ccccccccc" />
    <path
       id="path10"
       style="fill:#008080;fill-opacity:1;stroke:#000000;stroke-width:1.5;stroke-linecap:round;stroke-linejoin:round;stroke-dasharray:none;stroke-opacity:1"
       d="m 301.35665,108.37097 a 13.512197,5.21001 10.211841 0 0 -3.40629,-0.80227 13.512197,5.21001 10.211841 0 0 -10.64051,-0.007 5.4148724,14.829066 15.924055 0 0 -1.13778,0.36481 13.512197,5.21001 10.211841 0 0 -2.50206,2.24556 5.4148724,14.829066 15.924055 0 0 -4.84876,10.24802 5.4148724,14.829066 15.924055 0 0 0.49424,15.40791 13.50118,5.4233258 15.671062 0 0 10.62713,5.91445 13.50118,5.4233258 15.671062 0 0 14.48278,-1.56094 13.50118,5.4233258 15.671062 0 0 -11.51204,-8.87128 13.50118,5.4233258 15.671062 0 0 -6.35071,-1.11056 5.4148724,14.829066 15.924055 0 0 1.34579,-2.93335 8.8082633,4.4053924 15.64453 0 0 1.91236,0.65922 8.8082633,4.4053924 15.64453 0 0 9.68534,-1.85181 8.8082633,4.4053924 15.64453 0 0 -7.27222,-6.6222 8.8082633,4.4053924 15.64453 0 0 -2.01052,-0.43932 5.4148724,14.829066 15.924055 0 0 0.33079,-2.67094 13.512197,5.21001 10.211841 0 0 5.38249,1.45298 13.512197,5.21001 10.211841 0 0 14.29885,-2.68495 13.512197,5.21001 10.211841 0 0 -8.87897,-6.73791 z" />
    <path
       id="path11"
       style="fill:#008080;fill-opacity:1;stroke:#000000;stroke-width:1.5;stroke-linecap:round;stroke-linejoin:round;stroke-dasharray:none;stroke-opacity:1"
       d="m 331.3357,102.65749 a 5.7532881,14.441166 82.643299 0 0 -3.73024,0.27441 5.7532881,14.441166 82.643299 0 0 -10.8373,3.49012 16.371361,5.7885682 88.171533 0 0 -1.03956,0.75841 5.7532881,14.441166 82.643299 0 0 -1.81527,3.18868 16.371361,5.7885682 88.171533 0 0 -1.5944,12.39241 16.371361,5.7885682 88.171533 0 0 5.52939,16.07303 5.9873982,14.432885 88.356397 0 0 12.75058,2.73867 5.9873982,14.432885 88.356397 0 0 14.23817,-6.40571 5.9873982,14.432885 88.356397 0 0 -14.61618,-5.56342 5.9873982,14.432885 88.356397 0 0 -6.82901,0.91749 16.371361,5.7885682 88.171533 0 0 0.41351,-3.53331 4.8635936,9.4161102 88.377747 0 0 2.16234,0.0659 4.8635936,9.4161102 88.377747 0 0 9.25821,-5.13513 4.8635936,9.4161102 88.377747 0 0 -9.56526,-4.58731 4.8635936,9.4161102 88.377747 0 0 -2.19057,0.19788 16.371361,5.7885682 88.171533 0 0 -0.53434,-2.92317 5.7532881,14.441166 82.643299 0 0 5.9548,-0.23854 5.7532881,14.441166 82.643299 0 0 13.68422,-7.52965 5.7532881,14.441166 82.643299 0 0 -11.23909,-4.18102 z" />
    <path
       id="path12"
       style="fill:#008080;fill-opacity:1;stroke:#000000;stroke-width:1.5;stroke-linecap:round;stroke-linejoin:round;stroke-dasharray:none;stroke-opacity:1"
       d="m 361.49732,99.657316 c -15.08834,2.691384 -15.1549,14.542274 -13.48169,26.592484 1.6081,10.87737 5.99775,19.23303 9.80504,18.66374 3.24489,-0.4874 5.09434,-7.37476 4.44125,-16.53938 1.14994,0.0366 2.30641,-0.0311 3.45071,-0.2033 9.09639,-1.36314 15.52697,-8.85135 14.36303,-16.7253 -1.16416,-7.87393 -9.482,-13.151684 -18.57834,-11.788124 z m 1.38144,9.469254 a 5.0039964,5.3927002 80.766602 0 1 6.06495,4.15156 5.0039964,5.3927002 80.766602 0 1 -4.6011,5.75014 5.0039964,5.3927002 80.766602 0 1 -6.06495,-4.15154 5.0039964,5.3927002 80.766602 0 1 4.6011,-5.75016 z" />
    <path
       id="path13"
       style="fill:#008080;fill-opacity:1;stroke:#000000;stroke-width:1.5;stroke-linecap:round;stroke-linejoin:round;stroke-dasharray:none;stroke-opacity:1"
       d="m 410.44962,106.74865 a 14.449512,5.7499662 18.559039 0 0 -3.47974,-1.38066 14.449512,5.7499662 18.559039 0 0 -11.26884,-1.58423 5.7949708,16.353273 23.653705 0 0 -1.26327,0.22987 14.449512,5.7499662 18.559039 0 0 -3.00853,2.0814 5.7949708,16.353273 23.653705 0 0 -6.77129,10.4721 5.7949708,16.353273 23.653705 0 0 -1.93582,16.89792 14.449402,5.9805541 24.264495 0 0 10.31188,8.03253 14.449402,5.9805541 24.264495 0 0 15.58862,0.4409 14.449402,5.9805541 24.264495 0 0 -10.77711,-11.39232 14.449402,5.9805541 24.264495 0 0 -6.54914,-2.15341 5.7949708,16.353273 23.653705 0 0 1.89361,-3.00372 9.4269267,4.8580122 24.334552 0 0 1.92025,1.00309 9.4269267,4.8580122 24.334552 0 0 10.55386,-0.58737 9.4269267,4.8580122 24.334552 0 0 -6.64546,-8.30839 9.4269267,4.8580122 24.334552 0 0 -2.05933,-0.77756 5.7949708,16.353273 23.653705 0 0 0.77677,-2.86752 14.449512,5.7499662 18.559039 0 0 5.469,2.38394 14.449512,5.7499662 18.559039 0 0 15.57331,-0.81372 14.449512,5.7499662 18.559039 0 0 -8.3288,-8.67276 z" />
    <path
       id="path14"
       style="fill:#008080;fill-opacity:1;stroke:#000000;stroke-width:1.5;stroke-linecap:round;stroke-linejoin:round;stroke-dasharray:none;stroke-opacity:1"
       d="m 440.06231,99.797226 c -15.31068,0.624914 -16.95711,12.359484 -16.9078,24.526794 0.14093,10.99631 3.37603,19.86965 7.22474,19.82079 2.54127,-0.0336 4.76543,-3.98651 5.90665,-10.02905 a 12.406233,7.3929476 43.581744 0 0 3.06937,4.62023 12.406233,7.3929476 43.581744 0 0 14.4675,4.96158 12.406233,7.3929476 43.581744 0 0 -2.04319,-13.37876 12.406233,7.3929476 43.581744 0 0 -3.85437,-3.34057 c 5.39221,-2.44697 9.0464,-7.36524 8.9742,-12.98628 -0.10236,-7.96003 -7.64127,-14.314824 -16.8371,-14.194734 z m 0.10521,9.570854 a 5.0048008,5.3918332 89.189739 0 1 5.45702,4.9342 5.0048008,5.3918332 89.189739 0 1 -5.32833,5.07477 5.0048008,5.3918332 89.189739 0 1 -5.45528,-4.9342 5.0048008,5.3918332 89.189739 0 1 5.32659,-5.07477 z" />
    <g
       id="g17"
       transform="matrix(3.3661521,-0.99539783,0.98859235,3.3893249,11.001395,52.096818)"
       style="stroke:#000000;stroke-width:0.426091;stroke-dasharray:none;stroke-opacity:1">
      <rect
         style="fill:#552200;fill-opacity:1;stroke:#000000;stroke-width:0.426091;stroke-linecap:round;stroke-linejoin:round;stroke-dasharray:none;stroke-opacity:1"
         id="rect17"
         width="1.4263341"
         height="13.244532"
         x="-37.343502"
         y="24.723124"
         rx="0.029361548"
         ry="0.25409824"
         transform="scale(-1,1)" />
      <path
         sodipodi:type="star"
         style="fill:#d40000;fill-opacity:1;stroke:#000000;stroke-width:0.380513;stroke-linecap:round;stroke-linejoin:round;stroke-dasharray:none;stroke-opacity:1"
         id="path17"
         inkscape:flatsided="false"
         sodipodi:sides="3"
         sodipodi:cx="24.723124"
         sodipodi:cy="28.458761"
         sodipodi:r1="4.9744649"
         sodipodi:r2="2.4872322"
         sodipodi:arg1="2.6179939"
         sodipodi:arg2="3.6651914"
         inkscape:rounded="0"
         inkscape:randomized="0"
         d="m 20.415111,30.945994 2.154006,-3.730849 2.154007,-3.730849 2.154006,3.730849 2.154006,3.730849 -4.308012,-10e-7 z"
         transform="matrix(-1.0344672,-0.52486914,-0.5972499,0.90910002,76.926205,14.354196)"
         inkscape:transform-center-x="-1.4855008" />
      <ellipse
         style="fill:#d4aa00;fill-opacity:1;stroke:#000000;stroke-width:0.426091;stroke-linecap:round;stroke-linejoin:round;stroke-dasharray:none;stroke-opacity:1"
         id="path15"
         cx="-36.630337"
         cy="38.544979"
         rx="2.0619226"
         ry="2.0036595"
         transform="scale(-1,1)" />
    </g>
    <g
       id="g1">
      <path
         id="path16"
         style="fill:#000000;fill-opacity:1;stroke:#000000;stroke-width:1.5;stroke-linecap:round;stroke-linejoin:round;stroke-dasharray:none;stroke-opacity:1"
         d="m 239.46325,30.913054 a 6.1487532,3.6837779 85.173631 0 0 -3.17708,5.82826 20.162842,20.301645 0 0 0 -7.77333,4.112523 6.1245749,3.698321 40.518965 0 0 -6.32562,-0.569301 6.1245749,3.698321 40.518965 0 0 1.73047,6.278405 20.162842,20.301645 0 0 0 -2.32733,7.724109 3.7087664,6.1073242 85.030263 0 0 -5.68798,4.209886 3.7087664,6.1073242 85.030263 0 0 6.31939,3.175497 20.162842,20.301645 0 0 0 3.85859,7.539267 3.6940077,6.131726 39.688632 0 0 -0.40769,6.134919 3.6940077,6.131726 39.688632 0 0 5.93496,-1.446642 20.162842,20.301645 0 0 0 8.04537,2.546608 6.1487532,3.6837779 85.173631 0 0 0.0135,0.307308 6.1487532,3.6837779 85.173631 0 0 4.19108,5.809733 6.1487532,3.6837779 85.173631 0 0 3.14847,-6.442914 6.1487532,3.6837779 85.173631 0 0 -0.0374,-0.303776 20.162842,20.301645 0 0 0 7.31644,-3.74069 6.1245749,3.698321 40.518965 0 0 6.27517,0.533406 6.1245749,3.698321 40.518965 0 0 -1.53451,-6.080664 20.162842,20.301645 0 0 0 2.6234,-8.263927 3.7087664,6.1073242 85.030263 0 0 5.5502,-4.193514 3.7087664,6.1073242 85.030263 0 0 -6.17047,-3.180866 20.162842,20.301645 0 0 0 -3.44057,-7.008885 3.6940077,6.131726 39.688632 0 0 0.74268,-6.616979 3.6940077,6.131726 39.688632 0 0 -6.18912,1.695128 20.162842,20.301645 0 0 0 -8.56386,-2.846219 6.1487532,3.6837779 85.173631 0 0 -4.11558,-5.200619 z" />
      <g
         id="g19"
         transform="matrix(2.0609404,0,0,2.0751277,86.200326,34.728322)"
         style="fill:#000000;fill-opacity:1;stroke:#000000;stroke-width:0.491347;stroke-dasharray:none;stroke-opacity:1">
        <ellipse
           style="fill:#000000;fill-opacity:1;stroke:#000000;stroke-width:0.491347;stroke-linecap:round;stroke-linejoin:round;stroke-dasharray:none;stroke-opacity:1"
           id="ellipse16"
           cx="75.378632"
           cy="9.5093784"
           rx="5.3550291"
           ry="4.7546892" />
        <ellipse
           style="fill:#000000;fill-opacity:1;stroke:#000000;stroke-width:0.491347;stroke-linecap:round;stroke-linejoin:round;stroke-dasharray:none;stroke-opacity:1"
           id="ellipse17"
           cx="74.933868"
           cy="-1.8261969"
           rx="0.9365297"
           ry="1.9451003"
           transform="rotate(12.497206)" />
        <ellipse
           style="fill:#000000;fill-opacity:1;stroke:#000000;stroke-width:0.491347;stroke-linecap:round;stroke-linejoin:round;stroke-dasharray:none;stroke-opacity:1"
           id="ellipse18"
           cx="75.045052"
           cy="14.48019"
           rx="0.9365297"
           ry="1.9451003" />
        <ellipse
           style="fill:#000000;fill-opacity:1;stroke:#000000;stroke-width:0.491347;stroke-linecap:round;stroke-linejoin:round;stroke-dasharray:none;stroke-opacity:1"
           id="ellipse19"
           cx="69.219597"
           cy="35.967506"
           rx="0.9365297"
           ry="1.9451003"
           transform="rotate(-16.687484)" />
      </g>
      <path
         id="path18"
         style="fill:#333333;fill-opacity:1;stroke:#000000;stroke-width:1.5;stroke-linecap:round;stroke-linejoin:round;stroke-dasharray:none;stroke-opacity:1"
         d="m 237.54216,28.223533 a 6.1487532,3.6837779 85.173631 0 0 -3.17708,5.82826 20.162842,20.301645 0 0 0 -7.77333,4.112523 6.1245749,3.698321 40.518965 0 0 -6.32562,-0.569301 6.1245749,3.698321 40.518965 0 0 1.73047,6.278405 20.162842,20.301645 0 0 0 -2.32733,7.724109 3.7087664,6.1073242 85.030263 0 0 -5.68798,4.209886 3.7087664,6.1073242 85.030263 0 0 6.31939,3.175497 20.162842,20.301645 0 0 0 3.85859,7.539267 3.6940077,6.131726 39.688632 0 0 -0.40769,6.134919 3.6940077,6.131726 39.688632 0 0 5.93496,-1.446642 20.162842,20.301645 0 0 0 8.04537,2.546608 6.1487532,3.6837779 85.173631 0 0 0.0135,0.307308 6.1487532,3.6837779 85.173631 0 0 4.19108,5.809733 6.1487532,3.6837779 85.173631 0 0 3.14847,-6.442914 6.1487532,3.6837779 85.173631 0 0 -0.0374,-0.303776 20.162842,20.301645 0 0 0 7.31644,-3.74069 6.1245749,3.698321 40.518965 0 0 6.27517,0.533406 6.1245749,3.698321 40.518965 0 0 -1.53451,-6.080664 20.162842,20.301645 0 0 0 2.6234,-8.263927 3.7087664,6.1073242 85.030263 0 0 5.5502,-4.193514 3.7087664,6.1073242 85.030263 0 0 -6.17047,-3.180866 20.162842,20.301645 0 0 0 -3.44057,-7.008885 3.6940077,6.131726 39.688632 0 0 0.74268,-6.616979 3.6940077,6.131726 39.688632 0 0 -6.18912,1.695128 20.162842,20.301645 0 0 0 -8.56386,-2.846219 6.1487532,3.6837779 85.173631 0 0 -4.11558,-5.200619 z" />
      <g
         id="g29"
         transform="matrix(2.0609404,0,0,2.0751277,84.279239,32.038801)"
         style="stroke-width:0.491347;stroke-dasharray:none">
        <ellipse
           style="fill:#ffffff;fill-opacity:1;stroke:#ffffff;stroke-width:0.491347;stroke-linecap:round;stroke-linejoin:round;stroke-dasharray:none;stroke-opacity:1"
           id="path26"
           cx="75.378632"
           cy="9.5093784"
           rx="5.3550291"
           ry="4.7546892" />
        <ellipse
           style="fill:#ffffff;fill-opacity:1;stroke:#ffffff;stroke-width:0.491347;stroke-linecap:round;stroke-linejoin:round;stroke-dasharray:none;stroke-opacity:1"
           id="path27"
           cx="74.933868"
           cy="-1.8261969"
           rx="0.9365297"
           ry="1.9451003"
           transform="rotate(12.497206)" />
        <ellipse
           style="fill:#ffffff;fill-opacity:1;stroke:#ffffff;stroke-width:0.491347;stroke-linecap:round;stroke-linejoin:round;stroke-dasharray:none;stroke-opacity:1"
           id="ellipse27"
           cx="75.045052"
           cy="14.48019"
           rx="0.9365297"
           ry="1.9451003" />
        <ellipse
           style="fill:#ffffff;fill-opacity:1;stroke:#ffffff;stroke-width:0.491347;stroke-linecap:round;stroke-linejoin:round;stroke-dasharray:none;stroke-opacity:1"
           id="ellipse28"
           cx="69.219597"
           cy="35.967506"
           rx="0.9365297"
           ry="1.9451003"
           transform="rotate(-16.687484)" />
      </g>
      <ellipse
         style="fill:#333333;fill-opacity:1;stroke:#000000;stroke-width:0.101612;stroke-linecap:round;stroke-linejoin:round;stroke-dasharray:none;stroke-opacity:1"
         id="path28"
         cx="244.27664"
         cy="50.570126"
         rx="2.820962"
         ry="2.9400439" />
      <ellipse
         style="fill:#333333;fill-opacity:1;stroke:#000000;stroke-width:0.101612;stroke-linecap:round;stroke-linejoin:round;stroke-dasharray:none;stroke-opacity:1"
         id="ellipse29"
         cx="235.07283"
         cy="50.090279"
         rx="2.820962"
         ry="2.9400439" />
    </g>
    <path
       id="path30"
       style="fill:#008080;fill-opacity:1;stroke:#000000;stroke-width:1.5;stroke-linecap:round;stroke-linejoin:round;stroke-dasharray:none;stroke-opacity:1"
       d="m 235.54782,139.8343 a 7.4258734,17.970081 32.498028 0 0 0.76849,0.14735 20.35724,8.4252673 84.488389 0 0 1.0204,0.048 20.35724,8.4252673 84.488389 0 0 1.23489,-0.35201 7.4258734,17.970081 32.498028 0 0 10.99727,-9.66737 17.995828,7.4152496 73.438807 0 0 11.79865,13.3408 17.995828,7.4152496 73.438807 0 0 0.80124,-0.41112 8.4278537,20.350993 13.38088 0 0 11.15496,-17.80573 8.4278537,20.350993 13.38088 0 0 -3.47009,-21.77617 8.4278537,20.350993 13.38088 0 0 -10.82526,11.21373 17.995828,7.4152496 73.438807 0 0 -4.13113,-4.66758 7.4258734,17.970081 32.498028 0 0 -0.88213,-0.78372 7.4258734,17.970081 32.498028 0 0 -10.97225,4.97631 20.35724,8.4252673 84.488389 0 0 -9.62764,-14.591594 20.35724,8.4252673 84.488389 0 0 -6.42419,21.085554 20.35724,8.4252673 84.488389 0 0 7.1425,18.33538 7.4258734,17.970081 32.498028 0 0 0.73408,0.60614 7.4258734,17.970081 32.498028 0 0 0.68024,0.30195 z"
       inkscape:export-filename="title_part2.svg"
       inkscape:export-xdpi="96"
       inkscape:export-ydpi="96" />
  </g>
</svg>
