<?xml version="1.0" encoding="UTF-8" standalone="no"?>
<!-- Created with Inkscape (http://www.inkscape.org/) -->

<svg
   width="1238.0906"
   height="247.86182"
   viewBox="0 0 327.57813 65.580103"
   version="1.1"
   id="svg1"
   inkscape:version="1.4.2 (f4327f4, 2025-05-13)"
   sodipodi:docname="title.svg"
   xmlns:inkscape="http://www.inkscape.org/namespaces/inkscape"
   xmlns:sodipodi="http://sodipodi.sourceforge.net/DTD/sodipodi-0.dtd"
   xmlns="http://www.w3.org/2000/svg"
   xmlns:svg="http://www.w3.org/2000/svg">
  <sodipodi:namedview
     id="namedview1"
     pagecolor="#505050"
     bordercolor="#eeeeee"
     borderopacity="1"
     inkscape:showpageshadow="0"
     inkscape:pageopacity="0"
     inkscape:pagecheckerboard="0"
     inkscape:deskcolor="#505050"
     inkscape:document-units="mm"
     inkscape:zoom="0.34431467"
     inkscape:cx="647.66337"
     inkscape:cy="137.9552"
     inkscape:window-width="1920"
     inkscape:window-height="991"
     inkscape:window-x="-9"
     inkscape:window-y="-9"
     inkscape:window-maximized="1"
     inkscape:current-layer="layer1">
    <inkscape:page
       x="0"
       y="0"
       width="327.57812"
       height="65.580101"
       id="page2"
       margin="0"
       bleed="0" />
  </sodipodi:namedview>
  <defs
     id="defs1" />
  <g
     inkscape:label="Capa 1"
     inkscape:groupmode="layer"
     id="layer1"
     transform="translate(-132.78917,-91.260423)">
    <path
       id="path19"
       style="fill:#000000;fill-opacity:1;stroke:#000000;stroke-width:1.5;stroke-linecap:round;stroke-linejoin:round;stroke-dasharray:none;stroke-opacity:1"
       d="m 238.26465,142.55113 a 7.4258734,17.970081 32.498028 0 0 0.76849,0.14735 20.35724,8.4252673 84.488389 0 0 1.0204,0.048 20.35724,8.4252673 84.488389 0 0 1.23489,-0.35201 7.4258734,17.970081 32.498028 0 0 10.99727,-9.66737 17.995828,7.4152496 73.438807 0 0 11.79865,13.3408 17.995828,7.4152496 73.438807 0 0 0.80124,-0.41112 8.4278537,20.350993 13.38088 0 0 11.15496,-17.80573 8.4278537,20.350993 13.38088 0 0 -3.47009,-21.77617 8.4278537,20.350993 13.38088 0 0 -10.82526,11.21373 17.995828,7.4152496 73.438807 0 0 -4.13113,-4.66758 7.4258734,17.970081 32.498028 0 0 -0.88213,-0.78372 7.4258734,17.970081 32.498028 0 0 -10.97225,4.97631 20.35724,8.4252673 84.488389 0 0 -9.62764,-14.59159 20.35724,8.4252673 84.488389 0 0 -6.42419,21.08555 20.35724,8.4252673 84.488389 0 0 7.1425,18.33538 7.4258734,17.970081 32.498028 0 0 0.73408,0.60614 7.4258734,17.970081 32.498028 0 0 0.68024,0.30195 z"
       inkscape:export-filename="title_part2.svg"
       inkscape:export-xdpi="96"
       inkscape:export-ydpi="96" />
    <path
       id="path20"
       style="fill:#000000;fill-opacity:1;stroke:#000000;stroke-width:1.5;stroke-linecap:round;stroke-linejoin:round;stroke-dasharray:none;stroke-opacity:1"
       d="m 213.41806,97.099756 c -2.33627,0.0374 -4.78445,0.33269 -7.20477,0.86892 -24.94755,5.524884 -28.96623,27.321614 3.57966,32.922904 -19.37768,-0.82846 -23.87176,6.14683 -22.99888,10.14294 1.09953,5.03335 9.29042,7.64575 19.47,5.39083 9.73718,-2.15667 20.90779,-5.57525 20.4588,-15.26404 0.60033,-5.38358 -3.75472,-16.82004 -24.2065,-17.45023 22.66354,1.06259 25.02983,-6.54201 24.11826,-10.71145 -0.80502,-3.685984 -6.02133,-6.014544 -13.21657,-5.899874 z"
       sodipodi:nodetypes="ccccccccc" />
    <path
       id="path21"
       style="fill:#000000;fill-opacity:1;stroke:#000000;stroke-width:1.5;stroke-linecap:round;stroke-linejoin:round;stroke-dasharray:none;stroke-opacity:1"
       d="m 304.07348,111.0878 a 13.512197,5.21001 10.211841 0 0 -3.40629,-0.80227 13.512197,5.21001 10.211841 0 0 -10.64051,-0.007 5.4148724,14.829066 15.924055 0 0 -1.13778,0.36481 13.512197,5.21001 10.211841 0 0 -2.50206,2.24556 5.4148724,14.829066 15.924055 0 0 -4.84876,10.24802 5.4148724,14.829066 15.924055 0 0 0.49424,15.40791 13.50118,5.4233258 15.671062 0 0 10.62713,5.91445 13.50118,5.4233258 15.671062 0 0 14.48278,-1.56094 13.50118,5.4233258 15.671062 0 0 -11.51204,-8.87128 13.50118,5.4233258 15.671062 0 0 -6.35071,-1.11056 5.4148724,14.829066 15.924055 0 0 1.34579,-2.93335 8.8082633,4.4053924 15.64453 0 0 1.91236,0.65922 8.8082633,4.4053924 15.64453 0 0 9.68534,-1.85181 8.8082633,4.4053924 15.64453 0 0 -7.27222,-6.6222 8.8082633,4.4053924 15.64453 0 0 -2.01052,-0.43932 5.4148724,14.829066 15.924055 0 0 0.33079,-2.67094 13.512197,5.21001 10.211841 0 0 5.38249,1.45298 13.512197,5.21001 10.211841 0 0 14.29885,-2.68495 13.512197,5.21001 10.211841 0 0 -8.87897,-6.73791 z" />
    <path
       id="path22"
       style="fill:#000000;fill-opacity:1;stroke:#000000;stroke-width:1.5;stroke-linecap:round;stroke-linejoin:round;stroke-dasharray:none;stroke-opacity:1"
       d="m 334.05253,105.37432 a 5.7532881,14.441166 82.643299 0 0 -3.73024,0.27441 5.7532881,14.441166 82.643299 0 0 -10.8373,3.49012 16.371361,5.7885682 88.171533 0 0 -1.03956,0.75841 5.7532881,14.441166 82.643299 0 0 -1.81527,3.18868 16.371361,5.7885682 88.171533 0 0 -1.5944,12.39241 16.371361,5.7885682 88.171533 0 0 5.52939,16.07303 5.9873982,14.432885 88.356397 0 0 12.75058,2.73867 5.9873982,14.432885 88.356397 0 0 14.23817,-6.40571 5.9873982,14.432885 88.356397 0 0 -14.61618,-5.56342 5.9873982,14.432885 88.356397 0 0 -6.82901,0.91749 16.371361,5.7885682 88.171533 0 0 0.41351,-3.53331 4.8635936,9.4161102 88.377747 0 0 2.16234,0.0659 4.8635936,9.4161102 88.377747 0 0 9.25821,-5.13513 4.8635936,9.4161102 88.377747 0 0 -9.56526,-4.58731 4.8635936,9.4161102 88.377747 0 0 -2.19057,0.19788 16.371361,5.7885682 88.171533 0 0 -0.53434,-2.92317 5.7532881,14.441166 82.643299 0 0 5.9548,-0.23854 5.7532881,14.441166 82.643299 0 0 13.68422,-7.52965 5.7532881,14.441166 82.643299 0 0 -11.23909,-4.18102 z" />
    <path
       id="path23"
       style="fill:#000000;fill-opacity:1;stroke:#000000;stroke-width:1.5;stroke-linecap:round;stroke-linejoin:round;stroke-dasharray:none;stroke-opacity:1"
       d="m 364.21415,102.37415 c -15.08834,2.69138 -15.1549,14.54227 -13.48169,26.59248 1.6081,10.87737 5.99775,19.23303 9.80504,18.66374 3.24489,-0.4874 5.09434,-7.37476 4.44125,-16.53938 1.14994,0.0366 2.30641,-0.0311 3.45071,-0.2033 9.09639,-1.36314 15.52697,-8.85135 14.36303,-16.7253 -1.16416,-7.87393 -9.482,-13.15168 -18.57834,-11.78812 z m 1.38144,9.46925 a 5.0039964,5.3927002 80.766602 0 1 6.06495,4.15156 5.0039964,5.3927002 80.766602 0 1 -4.6011,5.75014 5.0039964,5.3927002 80.766602 0 1 -6.06495,-4.15154 5.0039964,5.3927002 80.766602 0 1 4.6011,-5.75016 z" />
    <path
       id="path24"
       style="fill:#000000;fill-opacity:1;stroke:#000000;stroke-width:1.5;stroke-linecap:round;stroke-linejoin:round;stroke-dasharray:none;stroke-opacity:1"
       d="m 413.16645,109.46548 a 14.449512,5.7499662 18.559039 0 0 -3.47974,-1.38066 14.449512,5.7499662 18.559039 0 0 -11.26884,-1.58423 5.7949708,16.353273 23.653705 0 0 -1.26327,0.22987 14.449512,5.7499662 18.559039 0 0 -3.00853,2.0814 5.7949708,16.353273 23.653705 0 0 -6.77129,10.4721 5.7949708,16.353273 23.653705 0 0 -1.93582,16.89792 14.449402,5.9805541 24.264495 0 0 10.31188,8.03253 14.449402,5.9805541 24.264495 0 0 15.58862,0.4409 14.449402,5.9805541 24.264495 0 0 -10.77711,-11.39232 14.449402,5.9805541 24.264495 0 0 -6.54914,-2.15341 5.7949708,16.353273 23.653705 0 0 1.89361,-3.00372 9.4269267,4.8580122 24.334552 0 0 1.92025,1.00309 9.4269267,4.8580122 24.334552 0 0 10.55386,-0.58737 9.4269267,4.8580122 24.334552 0 0 -6.64546,-8.30839 9.4269267,4.8580122 24.334552 0 0 -2.05933,-0.77756 5.7949708,16.353273 23.653705 0 0 0.77677,-2.86752 14.449512,5.7499662 18.559039 0 0 5.469,2.38394 14.449512,5.7499662 18.559039 0 0 15.57331,-0.81372 14.449512,5.7499662 18.559039 0 0 -8.3288,-8.67276 z" />
    <path
       id="path25"
       style="fill:#000000;fill-opacity:1;stroke:#000000;stroke-width:1.5;stroke-linecap:round;stroke-linejoin:round;stroke-dasharray:none;stroke-opacity:1"
       d="m 442.77914,102.51406 c -15.31068,0.62491 -16.95711,12.35948 -16.9078,24.52679 0.14093,10.99631 3.37603,19.86965 7.22474,19.82079 2.54127,-0.0336 4.76543,-3.98651 5.90665,-10.02905 a 12.406233,7.3929476 43.581744 0 0 3.06937,4.62023 12.406233,7.3929476 43.581744 0 0 14.4675,4.96158 12.406233,7.3929476 43.581744 0 0 -2.04319,-13.37876 12.406233,7.3929476 43.581744 0 0 -3.85437,-3.34057 c 5.39221,-2.44697 9.0464,-7.36524 8.9742,-12.98628 -0.10236,-7.96003 -7.64127,-14.31482 -16.8371,-14.19473 z m 0.10521,9.57085 a 5.0048008,5.3918332 89.189739 0 1 5.45702,4.9342 5.0048008,5.3918332 89.189739 0 1 -5.32833,5.07477 5.0048008,5.3918332 89.189739 0 1 -5.45528,-4.9342 5.0048008,5.3918332 89.189739 0 1 5.32659,-5.07477 z" />
    <g
       id="g30"
       transform="matrix(3.3661521,-0.99539783,0.98859235,3.3893249,13.718222,54.813646)"
       style="fill:#000000;fill-opacity:1;stroke:#000000;stroke-width:0.426091;stroke-dasharray:none;stroke-opacity:1">
      <rect
         style="fill:#000000;fill-opacity:1;stroke:#000000;stroke-width:0.426091;stroke-linecap:round;stroke-linejoin:round;stroke-dasharray:none;stroke-opacity:1"
         id="rect25"
         width="1.4263341"
         height="13.244532"
         x="-37.343502"
         y="24.723124"
         rx="0.029361548"
         ry="0.25409824"
         transform="scale(-1,1)" />
      <path
         sodipodi:type="star"
         style="fill:#000000;fill-opacity:1;stroke:#000000;stroke-width:0.380513;stroke-linecap:round;stroke-linejoin:round;stroke-dasharray:none;stroke-opacity:1"
         id="path29"
         inkscape:flatsided="false"
         sodipodi:sides="3"
         sodipodi:cx="24.723124"
         sodipodi:cy="28.458761"
         sodipodi:r1="4.9744649"
         sodipodi:r2="2.4872322"
         sodipodi:arg1="2.6179939"
         sodipodi:arg2="3.6651914"
         inkscape:rounded="0"
         inkscape:randomized="0"
         d="m 20.415111,30.945994 2.154006,-3.730849 2.154007,-3.730849 2.154006,3.730849 2.154006,3.730849 -4.308012,-10e-7 z"
         transform="matrix(-1.0344672,-0.52486914,-0.5972499,0.90910002,76.926205,14.354196)"
         inkscape:transform-center-x="-1.4855008" />
      <ellipse
         style="fill:#000000;fill-opacity:1;stroke:#000000;stroke-width:0.426091;stroke-linecap:round;stroke-linejoin:round;stroke-dasharray:none;stroke-opacity:1"
         id="ellipse30"
         cx="-36.630337"
         cy="38.544979"
         rx="2.0619226"
         ry="2.0036595"
         transform="scale(-1,1)" />
    </g>
    <path
       id="path1-8"
       style="fill:#008080;fill-opacity:1;stroke:#000000;stroke-width:1.5;stroke-linecap:round;stroke-linejoin:round;stroke-dasharray:none;stroke-opacity:1"
       d="m 235.54782,139.8343 a 7.4258734,17.970081 32.498028 0 0 0.76849,0.14735 20.35724,8.4252673 84.488389 0 0 1.0204,0.048 20.35724,8.4252673 84.488389 0 0 1.23489,-0.35201 7.4258734,17.970081 32.498028 0 0 10.99727,-9.66737 17.995828,7.4152496 73.438807 0 0 11.79865,13.3408 17.995828,7.4152496 73.438807 0 0 0.80124,-0.41112 8.4278537,20.350993 13.38088 0 0 11.15496,-17.80573 8.4278537,20.350993 13.38088 0 0 -3.47009,-21.77617 8.4278537,20.350993 13.38088 0 0 -10.82526,11.21373 17.995828,7.4152496 73.438807 0 0 -4.13113,-4.66758 7.4258734,17.970081 32.498028 0 0 -0.88213,-0.78372 7.4258734,17.970081 32.498028 0 0 -10.97225,4.97631 20.35724,8.4252673 84.488389 0 0 -9.62764,-14.591594 20.35724,8.4252673 84.488389 0 0 -6.42419,21.085554 20.35724,8.4252673 84.488389 0 0 7.1425,18.33538 7.4258734,17.970081 32.498028 0 0 0.73408,0.60614 7.4258734,17.970081 32.498028 0 0 0.68024,0.30195 z"
       inkscape:export-filename="title_part2.svg"
       inkscape:export-xdpi="96"
       inkscape:export-ydpi="96" />
    <path
       id="path8"
       style="fill:#008080;fill-opacity:1;stroke:#000000;stroke-width:1.5;stroke-linecap:round;stroke-linejoin:round;stroke-dasharray:none;stroke-opacity:1"
       d="m 210.70123,94.382926 c -2.33627,0.0374 -4.78445,0.33269 -7.20477,0.86892 -24.94755,5.524884 -28.96623,27.321614 3.57966,32.922904 -19.37768,-0.82846 -23.87176,6.14683 -22.99888,10.14294 1.09953,5.03335 9.29042,7.64575 19.47,5.39083 9.73718,-2.15667 20.90779,-5.57525 20.4588,-15.26404 0.60033,-5.38358 -3.75472,-16.82004 -24.2065,-17.45023 22.66354,1.06259 25.02983,-6.54201 24.11826,-10.71145 -0.80502,-3.685984 -6.02133,-6.014544 -13.21657,-5.899874 z"
       sodipodi:nodetypes="ccccccccc" />
    <path
       id="path10"
       style="fill:#008080;fill-opacity:1;stroke:#000000;stroke-width:1.5;stroke-linecap:round;stroke-linejoin:round;stroke-dasharray:none;stroke-opacity:1"
       d="m 301.35665,108.37097 a 13.512197,5.21001 10.211841 0 0 -3.40629,-0.80227 13.512197,5.21001 10.211841 0 0 -10.64051,-0.007 5.4148724,14.829066 15.924055 0 0 -1.13778,0.36481 13.512197,5.21001 10.211841 0 0 -2.50206,2.24556 5.4148724,14.829066 15.924055 0 0 -4.84876,10.24802 5.4148724,14.829066 15.924055 0 0 0.49424,15.40791 13.50118,5.4233258 15.671062 0 0 10.62713,5.91445 13.50118,5.4233258 15.671062 0 0 14.48278,-1.56094 13.50118,5.4233258 15.671062 0 0 -11.51204,-8.87128 13.50118,5.4233258 15.671062 0 0 -6.35071,-1.11056 5.4148724,14.829066 15.924055 0 0 1.34579,-2.93335 8.8082633,4.4053924 15.64453 0 0 1.91236,0.65922 8.8082633,4.4053924 15.64453 0 0 9.68534,-1.85181 8.8082633,4.4053924 15.64453 0 0 -7.27222,-6.6222 8.8082633,4.4053924 15.64453 0 0 -2.01052,-0.43932 5.4148724,14.829066 15.924055 0 0 0.33079,-2.67094 13.512197,5.21001 10.211841 0 0 5.38249,1.45298 13.512197,5.21001 10.211841 0 0 14.29885,-2.68495 13.512197,5.21001 10.211841 0 0 -8.87897,-6.73791 z" />
    <path
       id="path11"
       style="fill:#008080;fill-opacity:1;stroke:#000000;stroke-width:1.5;stroke-linecap:round;stroke-linejoin:round;stroke-dasharray:none;stroke-opacity:1"
       d="m 331.3357,102.65749 a 5.7532881,14.441166 82.643299 0 0 -3.73024,0.27441 5.7532881,14.441166 82.643299 0 0 -10.8373,3.49012 16.371361,5.7885682 88.171533 0 0 -1.03956,0.75841 5.7532881,14.441166 82.643299 0 0 -1.81527,3.18868 16.371361,5.7885682 88.171533 0 0 -1.5944,12.39241 16.371361,5.7885682 88.171533 0 0 5.52939,16.07303 5.9873982,14.432885 88.356397 0 0 12.75058,2.73867 5.9873982,14.432885 88.356397 0 0 14.23817,-6.40571 5.9873982,14.432885 88.356397 0 0 -14.61618,-5.56342 5.9873982,14.432885 88.356397 0 0 -6.82901,0.91749 16.371361,5.7885682 88.171533 0 0 0.41351,-3.53331 4.8635936,9.4161102 88.377747 0 0 2.16234,0.0659 4.8635936,9.4161102 88.377747 0 0 9.25821,-5.13513 4.8635936,9.4161102 88.377747 0 0 -9.56526,-4.58731 4.8635936,9.4161102 88.377747 0 0 -2.19057,0.19788 16.371361,5.7885682 88.171533 0 0 -0.53434,-2.92317 5.7532881,14.441166 82.643299 0 0 5.9548,-0.23854 5.7532881,14.441166 82.643299 0 0 13.68422,-7.52965 5.7532881,14.441166 82.643299 0 0 -11.23909,-4.18102 z" />
    <path
       id="path12"
       style="fill:#008080;fill-opacity:1;stroke:#000000;stroke-width:1.5;stroke-linecap:round;stroke-linejoin:round;stroke-dasharray:none;stroke-opacity:1"
       d="m 361.49732,99.657316 c -15.08834,2.691384 -15.1549,14.542274 -13.48169,26.592484 1.6081,10.87737 5.99775,19.23303 9.80504,18.66374 3.24489,-0.4874 5.09434,-7.37476 4.44125,-16.53938 1.14994,0.0366 2.30641,-0.0311 3.45071,-0.2033 9.09639,-1.36314 15.52697,-8.85135 14.36303,-16.7253 -1.16416,-7.87393 -9.482,-13.151684 -18.57834,-11.788124 z m 1.38144,9.469254 a 5.0039964,5.3927002 80.766602 0 1 6.06495,4.15156 5.0039964,5.3927002 80.766602 0 1 -4.6011,5.75014 5.0039964,5.3927002 80.766602 0 1 -6.06495,-4.15154 5.0039964,5.3927002 80.766602 0 1 4.6011,-5.75016 z" />
    <path
       id="path13"
       style="fill:#008080;fill-opacity:1;stroke:#000000;stroke-width:1.5;stroke-linecap:round;stroke-linejoin:round;stroke-dasharray:none;stroke-opacity:1"
       d="m 410.44962,106.74865 a 14.449512,5.7499662 18.559039 0 0 -3.47974,-1.38066 14.449512,5.7499662 18.559039 0 0 -11.26884,-1.58423 5.7949708,16.353273 23.653705 0 0 -1.26327,0.22987 14.449512,5.7499662 18.559039 0 0 -3.00853,2.0814 5.7949708,16.353273 23.653705 0 0 -6.77129,10.4721 5.7949708,16.353273 23.653705 0 0 -1.93582,16.89792 14.449402,5.9805541 24.264495 0 0 10.31188,8.03253 14.449402,5.9805541 24.264495 0 0 15.58862,0.4409 14.449402,5.9805541 24.264495 0 0 -10.77711,-11.39232 14.449402,5.9805541 24.264495 0 0 -6.54914,-2.15341 5.7949708,16.353273 23.653705 0 0 1.89361,-3.00372 9.4269267,4.8580122 24.334552 0 0 1.92025,1.00309 9.4269267,4.8580122 24.334552 0 0 10.55386,-0.58737 9.4269267,4.8580122 24.334552 0 0 -6.64546,-8.30839 9.4269267,4.8580122 24.334552 0 0 -2.05933,-0.77756 5.7949708,16.353273 23.653705 0 0 0.77677,-2.86752 14.449512,5.7499662 18.559039 0 0 5.469,2.38394 14.449512,5.7499662 18.559039 0 0 15.57331,-0.81372 14.449512,5.7499662 18.559039 0 0 -8.3288,-8.67276 z" />
    <path
       id="path14"
       style="fill:#008080;fill-opacity:1;stroke:#000000;stroke-width:1.5;stroke-linecap:round;stroke-linejoin:round;stroke-dasharray:none;stroke-opacity:1"
       d="m 440.06231,99.797226 c -15.31068,0.624914 -16.95711,12.359484 -16.9078,24.526794 0.14093,10.99631 3.37603,19.86965 7.22474,19.82079 2.54127,-0.0336 4.76543,-3.98651 5.90665,-10.02905 a 12.406233,7.3929476 43.581744 0 0 3.06937,4.62023 12.406233,7.3929476 43.581744 0 0 14.4675,4.96158 12.406233,7.3929476 43.581744 0 0 -2.04319,-13.37876 12.406233,7.3929476 43.581744 0 0 -3.85437,-3.34057 c 5.39221,-2.44697 9.0464,-7.36524 8.9742,-12.98628 -0.10236,-7.96003 -7.64127,-14.314824 -16.8371,-14.194734 z m 0.10521,9.570854 a 5.0048008,5.3918332 89.189739 0 1 5.45702,4.9342 5.0048008,5.3918332 89.189739 0 1 -5.32833,5.07477 5.0048008,5.3918332 89.189739 0 1 -5.45528,-4.9342 5.0048008,5.3918332 89.189739 0 1 5.32659,-5.07477 z" />
    <g
       id="g17"
       transform="matrix(3.3661521,-0.99539783,0.98859235,3.3893249,11.001395,52.096818)"
       style="stroke:#000000;stroke-width:0.426091;stroke-dasharray:none;stroke-opacity:1">
      <rect
         style="fill:#552200;fill-opacity:1;stroke:#000000;stroke-width:0.426091;stroke-linecap:round;stroke-linejoin:round;stroke-dasharray:none;stroke-opacity:1"
         id="rect17"
         width="1.4263341"
         height="13.244532"
         x="-37.343502"
         y="24.723124"
         rx="0.029361548"
         ry="0.25409824"
         transform="scale(-1,1)" />
      <path
         sodipodi:type="star"
         style="fill:#d40000;fill-opacity:1;stroke:#000000;stroke-width:0.380513;stroke-linecap:round;stroke-linejoin:round;stroke-dasharray:none;stroke-opacity:1"
         id="path17"
         inkscape:flatsided="false"
         sodipodi:sides="3"
         sodipodi:cx="24.723124"
         sodipodi:cy="28.458761"
         sodipodi:r1="4.9744649"
         sodipodi:r2="2.4872322"
         sodipodi:arg1="2.6179939"
         sodipodi:arg2="3.6651914"
         inkscape:rounded="0"
         inkscape:randomized="0"
         d="m 20.415111,30.945994 2.154006,-3.730849 2.154007,-3.730849 2.154006,3.730849 2.154006,3.730849 -4.308012,-10e-7 z"
         transform="matrix(-1.0344672,-0.52486914,-0.5972499,0.90910002,76.926205,14.354196)"
         inkscape:transform-center-x="-1.4855008" />
      <ellipse
         style="fill:#d4aa00;fill-opacity:1;stroke:#000000;stroke-width:0.426091;stroke-linecap:round;stroke-linejoin:round;stroke-dasharray:none;stroke-opacity:1"
         id="path15"
         cx="-36.630337"
         cy="38.544979"
         rx="2.0619226"
         ry="2.0036595"
         transform="scale(-1,1)" />
    </g>
    <path
       id="path30"
       style="fill:#008080;fill-opacity:1;stroke:#000000;stroke-width:1.5;stroke-linecap:round;stroke-linejoin:round;stroke-dasharray:none;stroke-opacity:1"
       d="m 235.54782,139.8343 a 7.4258734,17.970081 32.498028 0 0 0.76849,0.14735 20.35724,8.4252673 84.488389 0 0 1.0204,0.048 20.35724,8.4252673 84.488389 0 0 1.23489,-0.35201 7.4258734,17.970081 32.498028 0 0 10.99727,-9.66737 17.995828,7.4152496 73.438807 0 0 11.79865,13.3408 17.995828,7.4152496 73.438807 0 0 0.80124,-0.41112 8.4278537,20.350993 13.38088 0 0 11.15496,-17.80573 8.4278537,20.350993 13.38088 0 0 -3.47009,-21.77617 8.4278537,20.350993 13.38088 0 0 -10.82526,11.21373 17.995828,7.4152496 73.438807 0 0 -4.13113,-4.66758 7.4258734,17.970081 32.498028 0 0 -0.88213,-0.78372 7.4258734,17.970081 32.498028 0 0 -10.97225,4.97631 20.35724,8.4252673 84.488389 0 0 -9.62764,-14.591594 20.35724,8.4252673 84.488389 0 0 -6.42419,21.085554 20.35724,8.4252673 84.488389 0 0 7.1425,18.33538 7.4258734,17.970081 32.498028 0 0 0.73408,0.60614 7.4258734,17.970081 32.498028 0 0 0.68024,0.30195 z"
       inkscape:export-filename="title_part2.svg"
       inkscape:export-xdpi="96"
       inkscape:export-ydpi="96" />
  </g>
</svg>
