<?xml version="1.0" encoding="UTF-8" standalone="no"?>
<!-- Created with Inkscape (http://www.inkscape.org/) -->

<svg
   width="786.83197"
   height="213.34383"
   viewBox="0 0 208.18262 56.447218"
   version="1.1"
   id="svg1"
   inkscape:version="1.4.2 (f4327f4, 2025-05-13)"
   sodipodi:docname="title.svg"
   xmlns:inkscape="http://www.inkscape.org/namespaces/inkscape"
   xmlns:sodipodi="http://sodipodi.sourceforge.net/DTD/sodipodi-0.dtd"
   xmlns="http://www.w3.org/2000/svg"
   xmlns:svg="http://www.w3.org/2000/svg">
  <sodipodi:namedview
     id="namedview1"
     pagecolor="#505050"
     bordercolor="#eeeeee"
     borderopacity="1"
     inkscape:showpageshadow="0"
     inkscape:pageopacity="0"
     inkscape:pagecheckerboard="0"
     inkscape:deskcolor="#505050"
     inkscape:document-units="mm"
     inkscape:zoom="0.34431467"
     inkscape:cx="647.66337"
     inkscape:cy="137.9552"
     inkscape:window-width="1920"
     inkscape:window-height="991"
     inkscape:window-x="-9"
     inkscape:window-y="-9"
     inkscape:window-maximized="1"
     inkscape:current-layer="layer1">
    <inkscape:page
       x="0"
       y="0"
       width="208.18262"
       height="56.44722"
       id="page2"
       margin="0"
       bleed="0" />
  </sodipodi:namedview>
  <defs
     id="defs1" />
  <g
     inkscape:label="Capa 1"
     inkscape:groupmode="layer"
     id="layer1"
     transform="translate(-59.774567,-27.271941)">
    <path
       id="path2"
       style="fill:#000000;fill-opacity:1;stroke:#000000;stroke-width:1.5;stroke-linecap:round;stroke-linejoin:round;stroke-dasharray:none;stroke-opacity:1"
       d="m 163.51453,44.205835 a 6.1504865,17.133894 5.8002059 0 0 -7.26822,12.400315 19.342054,6.5318944 58.72397 0 0 -15.15283,-11.522274 19.342054,6.5318944 58.72397 0 0 -0.82671,1.434812 6.1500513,17.135104 0 0 0 -3.3395,15.242538 6.1500513,17.135104 0 0 0 6.1496,17.135546 6.1500513,17.135104 0 0 0 5.60028,-10.049131 19.342054,6.5318944 58.72397 0 0 10.67842,9.266005 6.1504865,17.133894 5.8002059 0 0 0.68893,0.184314 6.1504865,17.133894 5.8002059 0 0 7.8538,-16.414478 6.1504865,17.133894 5.8002059 0 0 -4.38377,-17.677702 z"
       inkscape:export-filename="title_part1.svg"
       inkscape:export-xdpi="96"
       inkscape:export-ydpi="96" />
    <path
       id="path7"
       style="fill:#000000;fill-opacity:1;stroke:#000000;stroke-width:1.5;stroke-linecap:round;stroke-linejoin:round;stroke-dasharray:none;stroke-opacity:1"
       d="m 92.224775,34.83213 a 7.4125779,18.002313 9.8352987 0 0 -0.765075,0.164292 20.327234,8.4377039 61.846271 0 0 -0.959062,0.354137 20.327234,8.4377039 61.846271 0 0 -1.002576,0.80685 7.4125779,18.002313 9.8352987 0 0 -6.412484,13.205335 17.956256,7.431591 50.738023 0 0 -16.013996,-7.688811 17.956256,7.431591 50.738023 0 0 -0.580152,0.691845 20.354916,8.4262288 80.774212 0 0 -3.422894,20.768195 20.354916,8.4262288 80.774212 0 0 11.586714,18.716381 20.354916,8.4262288 80.774212 0 0 5.658289,-14.563476 17.956256,7.431591 50.738023 0 0 5.605706,2.688897 7.4125779,18.002313 9.8352987 0 0 1.114993,0.377868 7.4125779,18.002313 9.8352987 0 0 8.19644,-8.871709 20.327234,8.4377039 61.846271 0 0 14.494732,9.689509 20.327234,8.4377039 61.846271 0 0 -2.20094,-21.943784 20.327234,8.4377039 61.846271 0 0 -13.646262,-14.110758 7.4125779,18.002313 9.8352987 0 0 -0.910109,-0.271983 7.4125779,18.002313 9.8352987 0 0 -0.743324,-0.01276 z" />
    <g
       id="g7"
       transform="matrix(3.508318,0,0,3.5324691,48.972892,28.338876)"
       style="fill:#000000;fill-opacity:1;stroke:#000000;stroke-width:0.426091;stroke-dasharray:none;stroke-opacity:1">
      <ellipse
         style="fill:#000000;fill-opacity:1;stroke:#000000;stroke-width:0.426091;stroke-linecap:round;stroke-linejoin:round;stroke-dasharray:none;stroke-opacity:1"
         id="ellipse7"
         cx="21.300049"
         cy="9.7495146"
         rx="2.1372087"
         ry="4.7546892" />
      <circle
         style="fill:#000000;fill-opacity:1;stroke:#000000;stroke-width:0.426091;stroke-linecap:round;stroke-linejoin:round;stroke-dasharray:none;stroke-opacity:1"
         id="circle7"
         cx="21.516169"
         cy="2.4493854"
         r="1.7770051" />
    </g>
    <path
       id="path9"
       style="fill:#000000;fill-opacity:1;stroke:#000000;stroke-width:1.5;stroke-linecap:round;stroke-linejoin:round;stroke-dasharray:none;stroke-opacity:1"
       d="m 194.88316,40.06186 a 6.3474204,15.768756 84.204391 0 0 -4.07919,0.182532 6.3474204,15.768756 84.204391 0 0 -11.94387,3.501228 6.3185464,18.068205 0 0 0 -1.1603,0.803203 6.3474204,15.768756 84.204391 0 0 -2.09037,3.459236 6.3185464,18.068205 0 0 0 -2.1665,13.619715 6.3185464,18.068205 0 0 0 5.47881,17.909532 15.754243,6.6079992 0 0 0 13.81668,3.431854 15.754243,6.6079992 0 0 0 15.75474,-6.608144 15.754243,6.6079992 0 0 0 -15.75474,-6.608149 15.754243,6.6079992 0 0 0 -7.48215,0.79225 6.3185464,18.068205 0 0 0 0.57289,-3.884568 10.278169,5.3677132 0 0 0 2.35687,0.142395 10.278169,5.3677132 0 0 0 10.27775,-5.366831 10.278169,5.3677132 0 0 0 -10.27775,-5.368668 10.278169,5.3677132 0 0 0 -2.39675,0.147881 6.3185464,18.068205 0 0 0 -0.48225,-3.242006 6.3474204,15.768756 84.204391 0 0 6.50495,-0.07108 6.3474204,15.768756 84.204391 0 0 15.18909,-7.865878 6.3474204,15.768756 84.204391 0 0 -12.11791,-4.974381 z" />
    <path
       id="path16"
       style="fill:#000000;fill-opacity:1;stroke:#000000;stroke-width:1.5;stroke-linecap:round;stroke-linejoin:round;stroke-dasharray:none;stroke-opacity:1"
       d="m 239.46325,30.913054 a 6.1487532,3.6837779 85.173631 0 0 -3.17708,5.82826 20.162842,20.301645 0 0 0 -7.77333,4.112523 6.1245749,3.698321 40.518965 0 0 -6.32562,-0.569301 6.1245749,3.698321 40.518965 0 0 1.73047,6.278405 20.162842,20.301645 0 0 0 -2.32733,7.724109 3.7087664,6.1073242 85.030263 0 0 -5.68798,4.209886 3.7087664,6.1073242 85.030263 0 0 6.31939,3.175497 20.162842,20.301645 0 0 0 3.85859,7.539267 3.6940077,6.131726 39.688632 0 0 -0.40769,6.134919 3.6940077,6.131726 39.688632 0 0 5.93496,-1.446642 20.162842,20.301645 0 0 0 8.04537,2.546608 6.1487532,3.6837779 85.173631 0 0 0.0135,0.307308 6.1487532,3.6837779 85.173631 0 0 4.19108,5.809733 6.1487532,3.6837779 85.173631 0 0 3.14847,-6.442914 6.1487532,3.6837779 85.173631 0 0 -0.0374,-0.303776 20.162842,20.301645 0 0 0 7.31644,-3.74069 6.1245749,3.698321 40.518965 0 0 6.27517,0.533406 6.1245749,3.698321 40.518965 0 0 -1.53451,-6.080664 20.162842,20.301645 0 0 0 2.6234,-8.263927 3.7087664,6.1073242 85.030263 0 0 5.5502,-4.193514 3.7087664,6.1073242 85.030263 0 0 -6.17047,-3.180866 20.162842,20.301645 0 0 0 -3.44057,-7.008885 3.6940077,6.131726 39.688632 0 0 0.74268,-6.616979 3.6940077,6.131726 39.688632 0 0 -6.18912,1.695128 20.162842,20.301645 0 0 0 -8.56386,-2.846219 6.1487532,3.6837779 85.173631 0 0 -4.11558,-5.200619 z" />
    <g
       id="g19"
       transform="matrix(2.0609404,0,0,2.0751277,86.200326,34.728322)"
       style="fill:#000000;fill-opacity:1;stroke:#000000;stroke-width:0.491347;stroke-dasharray:none;stroke-opacity:1">
      <ellipse
         style="fill:#000000;fill-opacity:1;stroke:#000000;stroke-width:0.491347;stroke-linecap:round;stroke-linejoin:round;stroke-dasharray:none;stroke-opacity:1"
         id="ellipse16"
         cx="75.378632"
         cy="9.5093784"
         rx="5.3550291"
         ry="4.7546892" />
      <ellipse
         style="fill:#000000;fill-opacity:1;stroke:#000000;stroke-width:0.491347;stroke-linecap:round;stroke-linejoin:round;stroke-dasharray:none;stroke-opacity:1"
         id="ellipse17"
         cx="74.933868"
         cy="-1.8261969"
         rx="0.9365297"
         ry="1.9451003"
         transform="rotate(12.497206)" />
      <ellipse
         style="fill:#000000;fill-opacity:1;stroke:#000000;stroke-width:0.491347;stroke-linecap:round;stroke-linejoin:round;stroke-dasharray:none;stroke-opacity:1"
         id="ellipse18"
         cx="75.045052"
         cy="14.48019"
         rx="0.9365297"
         ry="1.9451003" />
      <ellipse
         style="fill:#000000;fill-opacity:1;stroke:#000000;stroke-width:0.491347;stroke-linecap:round;stroke-linejoin:round;stroke-dasharray:none;stroke-opacity:1"
         id="ellipse19"
         cx="69.219597"
         cy="35.967506"
         rx="0.9365297"
         ry="1.9451003"
         transform="rotate(-16.687484)" />
    </g>
    <path
       id="path5"
       style="fill:#00caea;fill-opacity:1;stroke:#000000;stroke-width:1.5;stroke-linecap:round;stroke-linejoin:round;stroke-dasharray:none;stroke-opacity:1"
       d="m 161.59344,41.516314 a 6.1504865,17.133894 5.8002059 0 0 -7.26822,12.400315 19.342054,6.5318944 58.72397 0 0 -15.15283,-11.522274 19.342054,6.5318944 58.72397 0 0 -0.82671,1.434812 6.1500513,17.135104 0 0 0 -3.3395,15.242538 6.1500513,17.135104 0 0 0 6.1496,17.135546 6.1500513,17.135104 0 0 0 5.60028,-10.049131 19.342054,6.5318944 58.72397 0 0 10.67842,9.266005 6.1504865,17.133894 5.8002059 0 0 0.68893,0.184314 6.1504865,17.133894 5.8002059 0 0 7.8538,-16.414478 6.1504865,17.133894 5.8002059 0 0 -4.38377,-17.677702 z"
       inkscape:export-filename="title_part1.svg"
       inkscape:export-xdpi="96"
       inkscape:export-ydpi="96" />
    <path
       id="path1"
       style="fill:#00caea;fill-opacity:1;stroke:#000000;stroke-width:1.5;stroke-linecap:round;stroke-linejoin:round;stroke-dasharray:none;stroke-opacity:1"
       d="m 90.303688,32.142609 a 7.4125779,18.002313 9.8352987 0 0 -0.765075,0.164292 20.327234,8.4377039 61.846271 0 0 -0.959062,0.354137 20.327234,8.4377039 61.846271 0 0 -1.002576,0.80685 7.4125779,18.002313 9.8352987 0 0 -6.412484,13.205335 17.956256,7.431591 50.738023 0 0 -16.013996,-7.688811 17.956256,7.431591 50.738023 0 0 -0.580152,0.691845 20.354916,8.4262288 80.774212 0 0 -3.422894,20.768195 20.354916,8.4262288 80.774212 0 0 11.586714,18.716381 20.354916,8.4262288 80.774212 0 0 5.658289,-14.563476 17.956256,7.431591 50.738023 0 0 5.605706,2.688897 7.4125779,18.002313 9.8352987 0 0 1.114993,0.377868 7.4125779,18.002313 9.8352987 0 0 8.196444,-8.871709 20.327234,8.4377039 61.846271 0 0 14.494725,9.689509 20.327234,8.4377039 61.846271 0 0 -2.20094,-21.943784 20.327234,8.4377039 61.846271 0 0 -13.646256,-14.110758 7.4125779,18.002313 9.8352987 0 0 -0.910112,-0.271983 7.4125779,18.002313 9.8352987 0 0 -0.743324,-0.01276 z" />
    <g
       id="g4"
       transform="matrix(3.508318,0,0,3.5324691,47.051805,25.649355)"
       style="stroke:#000000;stroke-width:0.426091;stroke-dasharray:none;stroke-opacity:1">
      <ellipse
         style="fill:#00caea;fill-opacity:1;stroke:#000000;stroke-width:0.426091;stroke-linecap:round;stroke-linejoin:round;stroke-dasharray:none;stroke-opacity:1"
         id="path3"
         cx="21.300049"
         cy="9.7495146"
         rx="2.1372087"
         ry="4.7546892" />
      <circle
         style="fill:#00caea;fill-opacity:1;stroke:#000000;stroke-width:0.426091;stroke-linecap:round;stroke-linejoin:round;stroke-dasharray:none;stroke-opacity:1"
         id="path4"
         cx="21.516169"
         cy="2.4493854"
         r="1.7770051" />
    </g>
    <path
       id="path6"
       style="fill:#00caea;fill-opacity:1;stroke:#000000;stroke-width:1.5;stroke-linecap:round;stroke-linejoin:round;stroke-dasharray:none;stroke-opacity:1"
       d="m 192.96207,37.372339 a 6.3474204,15.768756 84.204391 0 0 -4.07919,0.182532 6.3474204,15.768756 84.204391 0 0 -11.94387,3.501228 6.3185464,18.068205 0 0 0 -1.1603,0.803203 6.3474204,15.768756 84.204391 0 0 -2.09037,3.459236 6.3185464,18.068205 0 0 0 -2.1665,13.619715 6.3185464,18.068205 0 0 0 5.47881,17.909532 15.754243,6.6079992 0 0 0 13.81668,3.431854 15.754243,6.6079992 0 0 0 15.75474,-6.608144 15.754243,6.6079992 0 0 0 -15.75474,-6.608149 15.754243,6.6079992 0 0 0 -7.48215,0.79225 6.3185464,18.068205 0 0 0 0.57289,-3.884568 10.278169,5.3677132 0 0 0 2.35687,0.142395 10.278169,5.3677132 0 0 0 10.27775,-5.366831 10.278169,5.3677132 0 0 0 -10.27775,-5.368668 10.278169,5.3677132 0 0 0 -2.39675,0.147881 6.3185464,18.068205 0 0 0 -0.48225,-3.242006 6.3474204,15.768756 84.204391 0 0 6.50495,-0.07108 6.3474204,15.768756 84.204391 0 0 15.18909,-7.865878 6.3474204,15.768756 84.204391 0 0 -12.11791,-4.974381 z" />
    <path
       id="path18"
       style="fill:#333333;fill-opacity:1;stroke:#000000;stroke-width:1.5;stroke-linecap:round;stroke-linejoin:round;stroke-dasharray:none;stroke-opacity:1"
       d="m 237.54216,28.223533 a 6.1487532,3.6837779 85.173631 0 0 -3.17708,5.82826 20.162842,20.301645 0 0 0 -7.77333,4.112523 6.1245749,3.698321 40.518965 0 0 -6.32562,-0.569301 6.1245749,3.698321 40.518965 0 0 1.73047,6.278405 20.162842,20.301645 0 0 0 -2.32733,7.724109 3.7087664,6.1073242 85.030263 0 0 -5.68798,4.209886 3.7087664,6.1073242 85.030263 0 0 6.31939,3.175497 20.162842,20.301645 0 0 0 3.85859,7.539267 3.6940077,6.131726 39.688632 0 0 -0.40769,6.134919 3.6940077,6.131726 39.688632 0 0 5.93496,-1.446642 20.162842,20.301645 0 0 0 8.04537,2.546608 6.1487532,3.6837779 85.173631 0 0 0.0135,0.307308 6.1487532,3.6837779 85.173631 0 0 4.19108,5.809733 6.1487532,3.6837779 85.173631 0 0 3.14847,-6.442914 6.1487532,3.6837779 85.173631 0 0 -0.0374,-0.303776 20.162842,20.301645 0 0 0 7.31644,-3.74069 6.1245749,3.698321 40.518965 0 0 6.27517,0.533406 6.1245749,3.698321 40.518965 0 0 -1.53451,-6.080664 20.162842,20.301645 0 0 0 2.6234,-8.263927 3.7087664,6.1073242 85.030263 0 0 5.5502,-4.193514 3.7087664,6.1073242 85.030263 0 0 -6.17047,-3.180866 20.162842,20.301645 0 0 0 -3.44057,-7.008885 3.6940077,6.131726 39.688632 0 0 0.74268,-6.616979 3.6940077,6.131726 39.688632 0 0 -6.18912,1.695128 20.162842,20.301645 0 0 0 -8.56386,-2.846219 6.1487532,3.6837779 85.173631 0 0 -4.11558,-5.200619 z" />
    <g
       id="g29"
       transform="matrix(2.0609404,0,0,2.0751277,84.279239,32.038801)"
       style="stroke-width:0.491347;stroke-dasharray:none">
      <ellipse
         style="fill:#ffffff;fill-opacity:1;stroke:#ffffff;stroke-width:0.491347;stroke-linecap:round;stroke-linejoin:round;stroke-dasharray:none;stroke-opacity:1"
         id="path26"
         cx="75.378632"
         cy="9.5093784"
         rx="5.3550291"
         ry="4.7546892" />
      <ellipse
         style="fill:#ffffff;fill-opacity:1;stroke:#ffffff;stroke-width:0.491347;stroke-linecap:round;stroke-linejoin:round;stroke-dasharray:none;stroke-opacity:1"
         id="path27"
         cx="74.933868"
         cy="-1.8261969"
         rx="0.9365297"
         ry="1.9451003"
         transform="rotate(12.497206)" />
      <ellipse
         style="fill:#ffffff;fill-opacity:1;stroke:#ffffff;stroke-width:0.491347;stroke-linecap:round;stroke-linejoin:round;stroke-dasharray:none;stroke-opacity:1"
         id="ellipse27"
         cx="75.045052"
         cy="14.48019"
         rx="0.9365297"
         ry="1.9451003" />
      <ellipse
         style="fill:#ffffff;fill-opacity:1;stroke:#ffffff;stroke-width:0.491347;stroke-linecap:round;stroke-linejoin:round;stroke-dasharray:none;stroke-opacity:1"
         id="ellipse28"
         cx="69.219597"
         cy="35.967506"
         rx="0.9365297"
         ry="1.9451003"
         transform="rotate(-16.687484)" />
    </g>
    <ellipse
       style="fill:#333333;fill-opacity:1;stroke:#000000;stroke-width:0.101612;stroke-linecap:round;stroke-linejoin:round;stroke-dasharray:none;stroke-opacity:1"
       id="path28"
       cx="244.27664"
       cy="50.570126"
       rx="2.820962"
       ry="2.9400439" />
    <ellipse
       style="fill:#333333;fill-opacity:1;stroke:#000000;stroke-width:0.101612;stroke-linecap:round;stroke-linejoin:round;stroke-dasharray:none;stroke-opacity:1"
       id="ellipse29"
       cx="235.07283"
       cy="50.090279"
       rx="2.820962"
       ry="2.9400439" />
  </g>
</svg>
