<?xml version="1.0" encoding="UTF-8" standalone="no"?>
<!-- Created with Inkscape (http://www.inkscape.org/) -->

<svg
   width="15.875826mm"
   height="15.874207mm"
   viewBox="0 0 15.875826 15.874207"
   version="1.1"
   id="svg1"
   inkscape:version="1.4.2 (f4327f4, 2025-05-13)"
   sodipodi:docname="squares2.svg"
   xmlns:inkscape="http://www.inkscape.org/namespaces/inkscape"
   xmlns:sodipodi="http://sodipodi.sourceforge.net/DTD/sodipodi-0.dtd"
   xmlns="http://www.w3.org/2000/svg"
   xmlns:svg="http://www.w3.org/2000/svg">
  <sodipodi:namedview
     id="namedview1"
     pagecolor="#505050"
     bordercolor="#eeeeee"
     borderopacity="1"
     inkscape:showpageshadow="0"
     inkscape:pageopacity="0"
     inkscape:pagecheckerboard="0"
     inkscape:deskcolor="#505050"
     inkscape:document-units="mm"
     inkscape:zoom="4"
     inkscape:cx="65.500001"
     inkscape:cy="162.625"
     inkscape:window-width="1920"
     inkscape:window-height="991"
     inkscape:window-x="-9"
     inkscape:window-y="-9"
     inkscape:window-maximized="1"
     inkscape:current-layer="layer1"
     showgrid="true">
    <inkscape:grid
       id="grid2"
       units="px"
       originx="-15.874622"
       originy="-0.00037902594"
       spacingx="15.875"
       spacingy="15.875"
       empcolor="#0099e5"
       empopacity="0.30196078"
       color="#0099e5"
       opacity="0.14901961"
       empspacing="5"
       enabled="true"
       visible="true" />
    <inkscape:page
       x="0"
       y="3.5736219e-20"
       width="15.875826"
       height="15.874207"
       id="page2"
       margin="0"
       bleed="0" />
  </sodipodi:namedview>
  <defs
     id="defs1" />
  <g
     inkscape:label="Capa 1"
     inkscape:groupmode="layer"
     id="layer1"
     transform="translate(-15.874621,-3.7902598e-4)">
    <g
       id="g30">
      <rect
         style="fill:#472400;fill-opacity:1;stroke:#000000;stroke-width:0.5;stroke-linecap:round;stroke-linejoin:round;stroke-dasharray:none;stroke-opacity:1"
         id="rect2"
         width="15.375826"
         height="15.374207"
         x="0.25067231"
         y="0.24932967"
         rx="3.2255669"
         ry="3.2255669" />
      <rect
         style="fill:#472c00;fill-opacity:1;stroke:none;stroke-width:1.7;stroke-linecap:round;stroke-linejoin:round;stroke-dasharray:none;stroke-opacity:1"
         id="rect1"
         width="12.931007"
         height="12.970242"
         x="1.4730821"
         y="1.4513129"
         rx="3.2255669"
         ry="3.2255669" />
      <g
         id="g27"
         transform="matrix(1,0,0,1.0044598,0.3745235,-0.17586148)"
         style="stroke-width:0.997778">
        <path
           id="path27"
           style="fill:#000000;fill-opacity:1;stroke:#000000;stroke-width:0.498889;stroke-linecap:round;stroke-linejoin:round;stroke-dasharray:none;stroke-opacity:1"
           d="M 8.5694656,2.968816 C 7.7948223,2.9675406 6.6653873,3.8456684 5.7928262,5.1276312 4.7037754,6.7276838 4.3761556,8.4117879 5.0610799,8.8891161 5.5788488,9.2498798 6.9918643,7.6541162 7.9440783,6.646946 8.1183486,9.4242479 8.2482126,13.672788 9.6037616,13.342598 10.968035,13.038142 11.220434,10.88538 10.588435,7.8182342 9.9668436,4.8015937 9.7131256,3.5742781 9.0623576,3.1402696 c -0.01768,-0.015519 -0.03607,-0.030014 -0.05518,-0.043473 -8.18e-4,-6.265e-4 -0.0016,-0.00125 -0.0024,-0.00188 -0.04524,-0.030815 -0.09432,-0.055899 -0.147015,-0.075141 -0.09785,-0.046355 -0.194357,-0.063416 -0.288292,-0.050968 z"
           sodipodi:nodetypes="cccccscccccc" />
        <path
           id="path1"
           style="fill:#00639f;fill-opacity:1;stroke:#000000;stroke-width:0.498889;stroke-linecap:round;stroke-linejoin:round;stroke-dasharray:none;stroke-opacity:1"
           d="M 8.0765788,2.797354 C 7.3019361,2.7960786 6.1725014,3.6742064 5.2999399,4.9561692 4.2108891,6.5562218 3.8832693,8.2403259 4.5681936,8.7176541 5.0859625,9.0784178 6.4989785,7.4826542 7.4511916,6.475484 7.6254616,9.2527859 7.7553264,13.501326 9.1108749,13.171136 10.475148,12.86668 10.727547,10.713918 10.095548,7.6467722 9.4739567,4.6301317 9.2202386,3.4028161 8.5694706,2.9688076 8.5517946,2.9532886 8.533401,2.9387936 8.5142961,2.9253348 8.5134778,2.9247083 8.5126595,2.9240846 8.5119041,2.9234532 8.466663,2.8926386 8.4175845,2.8675545 8.364889,2.8483119 8.2670385,2.8019574 8.1705321,2.7848955 8.0765971,2.7973444 Z"
           sodipodi:nodetypes="cccccscccccc" />
      </g>
    </g>
    <g
       id="g1">
      <rect
         style="fill:#552b00;fill-opacity:1;stroke:#000000;stroke-width:0.5;stroke-linecap:round;stroke-linejoin:round;stroke-dasharray:none;stroke-opacity:1"
         id="rect21"
         width="15.375826"
         height="15.374207"
         x="16.124622"
         y="0.25037903"
         rx="3.2255669"
         ry="3.2255669" />
      <rect
         style="fill:#613c00;fill-opacity:1;stroke:none;stroke-width:1.7;stroke-linecap:round;stroke-linejoin:round;stroke-dasharray:none;stroke-opacity:1"
         id="rect22"
         width="12.931007"
         height="12.970242"
         x="17.347033"
         y="1.4523623"
         rx="3.2255669"
         ry="3.2255669" />
    </g>
    <rect
       style="fill:#472400;fill-opacity:1;stroke:#000000;stroke-width:0.5;stroke-linecap:round;stroke-linejoin:round;stroke-dasharray:none;stroke-opacity:1"
       id="rect23"
       width="15.375826"
       height="15.374207"
       x="16.125742"
       y="16.124294"
       rx="3.2255669"
       ry="3.2255669" />
    <g
       id="g40">
      <rect
         style="fill:#472400;fill-opacity:1;stroke:#000000;stroke-width:0.5;stroke-linecap:round;stroke-linejoin:round;stroke-dasharray:none;stroke-opacity:1"
         id="rect3"
         width="15.375826"
         height="15.374207"
         x="0.25067231"
         y="16.124294"
         rx="3.2255669"
         ry="3.2255669" />
      <rect
         style="fill:#472c00;fill-opacity:1;stroke:none;stroke-width:1.7;stroke-linecap:round;stroke-linejoin:round;stroke-dasharray:none;stroke-opacity:1"
         id="rect4"
         width="12.931007"
         height="12.970242"
         x="1.4730821"
         y="17.326279"
         rx="3.2255669"
         ry="3.2255669" />
      <g
         id="g29"
         transform="matrix(1,0,0,0.98226872,18.578464,-0.28568899)"
         style="stroke-width:1.00899">
        <path
           id="path29"
           style="fill:#000000;fill-opacity:1;stroke:#000000;stroke-width:0.504492;stroke-linecap:round;stroke-linejoin:round;stroke-dasharray:none;stroke-opacity:1"
           d="m -10.43863,19.581303 c 2.4312406,0.0035 2.8263956,1.709276 2.9604721,2.643287 0.066195,1.687968 -0.9983264,4.626114 -2.8567161,4.882444 1.4835437,-0.157766 2.9383131,0.73398 2.7740419,1.399521 -0.2316634,0.938466 -2.1044552,1.459454 -3.6109989,0.969684 -1.086615,-0.353265 -2.044265,-1.098762 -2.32378,-1.860357 -0.663221,-1.365938 3.8714427,-3.071504 3.7187067,-5.154637 0.0025,-1.557862 -3.7380627,1.53621 -3.8089567,-0.08355 -0.0859,-1.561556 1.276919,-2.775341 3.147231,-2.796395 z"
           sodipodi:nodetypes="ccccccccc" />
        <path
           id="path28"
           style="fill:#00a801;fill-opacity:1;stroke:#000000;stroke-width:0.504492;stroke-linecap:round;stroke-linejoin:round;stroke-dasharray:none;stroke-opacity:1"
           d="m -10.653604,19.399402 c 2.4312406,0.0035 2.8263956,1.709276 2.9604721,2.643287 0.066195,1.687968 -0.9983264,4.626114 -2.8567161,4.882444 1.4835437,-0.157766 2.9383131,0.73398 2.7740419,1.399521 -0.2316634,0.938466 -2.1044552,1.459454 -3.6109989,0.969684 -1.086615,-0.353265 -2.044265,-1.098762 -2.32378,-1.860357 -0.663221,-1.365938 3.8714427,-3.071504 3.7187067,-5.154637 0.0025,-1.557862 -3.7380627,1.53621 -3.8089567,-0.08355 -0.0859,-1.561556 1.276919,-2.775341 3.147231,-2.796395 z"
           sodipodi:nodetypes="ccccccccc" />
      </g>
    </g>
  </g>
</svg>
